<?xml version="1.0" encoding="UTF-8"?>
<svg xmlns="http://www.w3.org/2000/svg" xmlns:xlink="http://www.w3.org/1999/xlink" viewBox="0 0 808.43 1187.68">
  <defs>
    <style>
      .cls-1 {
        fill: #fff;
      }

      .cls-2 {
        fill: none;
      }

      .cls-3 {
        fill: #dcf4fe;
      }

      .cls-4 {
        clip-path: url(#clippath-1);
      }

      .cls-5 {
        fill: #5ad9ed;
      }

      .cls-6 {
        isolation: isolate;
      }

      .cls-7 {
        clip-path: url(#clippath-3);
      }

      .cls-8 {
        opacity: .66;
      }

      .cls-9 {
        mix-blend-mode: multiply;
      }

      .cls-10 {
        fill: #155672;
      }

      .cls-11 {
        opacity: .45;
      }

      .cls-12 {
        opacity: .1;
      }

      .cls-13 {
        clip-path: url(#clippath-2);
      }

      .cls-14 {
        clip-path: url(#clippath);
      }
    </style>
    <clipPath id="clippath">
      <rect class="cls-2" x="111.42" y="182.71" width="487.78" height="1000"/>
    </clipPath>
    <clipPath id="clippath-1">
      <rect class="cls-2" x="445.71" y="972.33" width="255.68" height="203.08"/>
    </clipPath>
    <clipPath id="clippath-2">
      <rect class="cls-2" x="144.17" y="177.74" width="511.23" height="586.57"/>
    </clipPath>
    <clipPath id="clippath-3">
      <path class="cls-2" d="M726.94,428.17c-132.56,199.1-320.47,77.57-320.47,77.57,0,0-124.17-64.94-124.19-196.04-.02-131.09,136.03-292.06,346-190.87,239.1,115.23,98.67,309.34,98.67,309.34ZM579.93,617.53c-14.05-65.96-53.32-46.17-53.32-46.17,0,0-21.31,12.64-16.85,62.18.96,10.61,3.49,18.65,6.87,24.73,10.99,19.74,38.45,22.09,53.48,5.23,18.42-20.67,9.82-45.97,9.82-45.97ZM160.05,391.52c-8.15,21.07,6.49,44.43,29.06,45.2,6.95.24,15.26-1.18,25.14-5.17,46.11-18.63,47.63-43.37,47.63-43.37,0,0-.31-43.98-65.41-26.38,0,0-26.44,3.9-36.42,29.72ZM460.02,663.28c21.86-104.52-41-105.71-41.58-105.71,0,0,0,0-.02,0-42.25-8.54-70.13,52.44-67.81,111.02,2.32,58.59,50.94,56.98,50.94,56.98,45.97,4.95,58.46-62.28,58.46-62.28ZM187.56,578.68s20.76,43.99,73.95,19.32c53.18-24.67,94.71-77.3,67.83-111,0,0,0,0-.01-.01-.27-.51-30.01-55.9-113.03,11.25,0,0-54.12,41.8-28.73,80.45Z"/>
    </clipPath>
  </defs>
  <g class="cls-6">
    <g id="Layer_1" data-name="Layer 1">
      <g class="cls-14">
        <g>
          <rect class="cls-5" x="-147.76" y="329.3" width="1006.13" height="710.62" transform="translate(1039.92 329.3) rotate(90)"/>
          <g>
            <ellipse class="cls-1" cx="203" cy="774.21" rx="7.2" ry="9.88" transform="translate(-242.48 109.26) rotate(-19.13)"/>
            <ellipse class="cls-1" cx="189.55" cy="786.55" rx="5.76" ry="7.91" transform="translate(-399.04 231.43) rotate(-33.13)"/>
            <ellipse class="cls-1" cx="225.88" cy="774.21" rx="9.88" ry="7.2" transform="translate(-579.61 733.94) rotate(-70.87)"/>
            <ellipse class="cls-1" cx="239.33" cy="786.55" rx="7.91" ry="5.76" transform="translate(-550.16 557.13) rotate(-56.87)"/>
            <path class="cls-1" d="M214.5,787.32c-12.95,0-23.44,14.82-23.44,25.72,0,8.92,7.04,4.13,16.7,2.1-.15-.12-.31-.23-.47-.34-11.96-8.53-6.4-15.86-6.4-15.86h0c1.43-2.3,3.97-3.83,6.88-3.82,2.84.01,5.33,1.49,6.76,3.72,1.44-2.21,3.94-3.68,6.78-3.67,2.25,0,4.27.94,5.73,2.42h0s.18.17.44.49c.04.04.07.09.1.13.06.08.13.18.2.27.43.59.79,1.25,1.05,1.95.04.09.07.19.1.28.02.07.05.13.07.2.98,3.08.64,8.09-6.97,14.06-.11.09-.22.18-.33.26,9.42,2.08,16.24,6.58,16.24-2.2,0-10.89-10.5-25.72-23.44-25.72Z"/>
          </g>
          <g class="cls-11">
            <g>
              <path class="cls-3" d="M264.3,208.38c-12.63-8.53-22.95.59-24.19,9.08-1.24,8.48,6.18,13.86,6.18,13.86,0,0,11.01,9.64,21.46-1.99,0,0,10.92-11.23-3.46-20.94Z"/>
              <path class="cls-3" d="M263.51,250.31c-.88.5-1.94.63-2.88.26-1.33-.52-2.99-1.9-2.79-5.51.15-2.67.78-4.37,1.44-5.43.95-1.53,2.9-2.2,4.47-1.32,1.22.69,2.43,2.33,2.67,6.06,0,0,.71,3.87-2.91,5.93Z"/>
              <path class="cls-3" d="M224.16,217.53c-.35.98-.29,2.1.28,2.98.77,1.2,2.43,2.53,5.89,1.68,2.47-.6,4-1.48,4.93-2.28,1.76-1.52,1.65-4.38-.35-5.57-1.08-.64-2.78-1.02-5.48-.7,0,0-3.9,0-5.28,3.89Z"/>
              <path class="cls-3" d="M243.51,257.97s-5.78-.65-5.04-7.62c.74-6.97,5.09-13.7,9.94-11.95,0,0,7.5,1.18,3.09,13.22,0,0-2.64,7.73-7.99,6.35Z"/>
              <path class="cls-3" d="M221.49,239.66s1.69,5.56,8.41,3.56c6.71-2,12.54-7.5,9.94-11.95,0,0-2.53-7.16-13.56-.62,0,0-7.12,4.01-4.79,9.02Z"/>
            </g>
            <g>
              <path class="cls-3" d="M571.47,750.73c19.31,7.95,30.63-7.16,29.94-18.88-.69-11.72-12.13-16.88-12.13-16.88,0,0-17.44-9.88-28.25,8.62,0,0-11.54,18.09,10.44,27.14Z"/>
              <path class="cls-3" d="M559.88,695.32c1.93-2.37,5.42-2.89,7.68-.83,1.08.99,2.01,2.6,2.4,5.23.76,5.05-.29,7.83-1.17,9.2-.51.79-1.3,1.36-2.22,1.58-1.96.46-5.81.22-7.93-7.48,0,0-1.67-4.12,1.23-7.69Z"/>
              <path class="cls-3" d="M622.73,727.69c.33-1.85-.34-3.77-1.85-4.89-1.49-1.1-3.92-1.78-7.66,0-7.36,3.49-7.37,7.54-7.37,7.54,0,0,.47,7.18,10.94,3.68,0,0,5.01-1.04,5.94-6.33Z"/>
              <path class="cls-3" d="M585.62,678.43s7.93-.73,8.87,8.82c.94,9.55-3.03,19.79-10.02,18.79,0,0-10.39.49-7.81-16.88,0,0,1.4-11.11,8.96-10.74Z"/>
              <path class="cls-3" d="M620.25,696.9s-3.81-6.99-12.27-2.45c-8.46,4.54-14.74,13.54-10.02,18.79,0,0,5.38,8.9,18.37-2.92,0,0,8.44-7.35,3.92-13.42Z"/>
            </g>
            <g>
              <path class="cls-3" d="M212.16,1156.52c20.3-4.88,20.61-23.76,13.18-32.85-7.43-9.09-19.72-6.56-19.72-6.56,0,0-19.92,2.22-17.83,23.54,0,0,1.26,21.42,24.37,15.86Z"/>
              <path class="cls-3" d="M170.28,1118.43c.17-3.05,2.7-5.52,5.74-5.17,1.45.17,3.15.93,5.01,2.83,3.57,3.65,4.36,6.51,4.45,8.13.05.94-.25,1.87-.87,2.58-1.32,1.52-4.58,3.58-10.81-1.41,0,0-3.77-2.35-3.51-6.96Z"/>
              <path class="cls-3" d="M240.18,1107.8c-.82-1.69-2.49-2.86-4.37-2.87-1.85-.02-4.22.85-6.21,4.49-3.91,7.14-1.55,10.43-1.55,10.43,0,0,4.59,5.54,11.02-3.43,0,0,3.45-3.78,1.1-8.61Z"/>
              <path class="cls-3" d="M181.23,1089.66s6-5.24,12.36,1.95c6.36,7.19,9.15,17.81,2.9,21.1,0,0-8.13,6.49-16.22-9.09,0,0-5.38-9.82.96-13.95Z"/>
              <path class="cls-3" d="M220.11,1084.31s-7.19-3.43-11.38,5.21c-4.19,8.64-4,19.61,2.9,21.1,0,0,9.58,4.06,13.16-13.13,0,0,2.53-10.9-4.69-13.17Z"/>
            </g>
            <g>
              <path class="cls-3" d="M517.99,865.73c13.91-13.93,4.85-29.25-5.6-32.89-10.45-3.64-19.08,4.45-19.08,4.45,0,0-14.91,11.6-2.72,27.71,0,0,11.57,16.59,27.41.73Z"/>
              <path class="cls-3" d="M464.51,853.13c-.19-.75-.15-1.55.17-2.25.74-1.63,2.78-4.27,8.07-2.95,5.33,1.34,7.23,3.64,7.88,4.84.27.5.37,1.06.32,1.62-.16,1.76-1.41,5.6-9.44,4.58,0,0-5.54-.04-7.01-5.84Z"/>
              <path class="cls-3" d="M515.57,812.25c-.74-.36-1.6-.49-2.4-.29-1.76.43-4.65,1.96-4.39,7.32.12,2.47.57,4.3,1.12,5.64,1.63,3.97,7.3,4.03,8.95.07.49-1.18.85-2.73,1-4.76,0,0,1.03-5.39-4.28-7.98Z"/>
              <path class="cls-3" d="M460.18,827.25s2.24-7.17,10.89-4.53c8.66,2.64,16.13,9.8,12.73,15.52,0,0-3.33,9.22-17.52.69,0,0-9.16-5.24-6.11-11.68Z"/>
              <path class="cls-3" d="M488.78,803.79s-7.47.79-6.57,9.79c.89,9,6.45,17.73,12.73,15.52,0,0,9.7-1.46,4.11-17.04,0,0-3.34-10.01-10.26-8.27Z"/>
            </g>
          </g>
          <g>
            <g class="cls-12">
              <g>
                <path class="cls-10" d="M571.06,962.98c-11.42-7.71-20.75.54-21.87,8.21-1.12,7.67,5.59,12.53,5.59,12.53,0,0,9.95,8.71,19.41-1.8,0,0,9.87-10.15-3.13-18.94Z"/>
                <path class="cls-10" d="M570.34,1000.88c-.79.45-1.75.57-2.6.24-1.2-.47-2.7-1.72-2.52-4.98.13-2.41.71-3.95,1.3-4.91.86-1.39,2.62-1.99,4.04-1.19,1.1.62,2.19,2.11,2.41,5.48,0,0,.65,3.5-2.63,5.36Z"/>
                <path class="cls-10" d="M534.77,971.24c-.32.89-.26,1.9.25,2.69.7,1.08,2.2,2.29,5.33,1.52,2.24-.54,3.61-1.34,4.46-2.06,1.59-1.37,1.49-3.96-.31-5.04-.97-.58-2.52-.92-4.96-.63,0,0-3.53,0-4.77,3.52Z"/>
                <path class="cls-10" d="M552.26,1007.81s-5.22-.59-4.55-6.89c.67-6.3,4.6-12.38,8.98-10.81,0,0,6.78,1.07,2.79,11.95,0,0-2.39,6.99-7.22,5.74Z"/>
                <path class="cls-10" d="M532.35,991.26s1.53,5.03,7.6,3.22c6.07-1.81,11.33-6.78,8.98-10.81,0,0-2.29-6.47-12.26-.56,0,0-6.44,3.62-4.33,8.15Z"/>
              </g>
            </g>
            <g class="cls-12">
              <g>
                <path class="cls-10" d="M228.91,334.11c12.57-12.59,4.39-26.44-5.06-29.74-9.45-3.29-17.25,4.02-17.25,4.02,0,0-13.48,10.49-2.46,25.05,0,0,10.46,15,24.78.66Z"/>
                <path class="cls-10" d="M180.56,322.72c-.17-.68-.14-1.4.15-2.04.67-1.48,2.51-3.86,7.3-2.66,4.82,1.21,6.54,3.29,7.13,4.37.24.45.33.96.29,1.46-.14,1.59-1.28,5.06-8.53,4.14,0,0-5.01-.04-6.34-5.28Z"/>
                <path class="cls-10" d="M226.72,285.76c-.67-.33-1.44-.44-2.17-.26-1.59.39-4.2,1.77-3.97,6.62.11,2.23.51,3.89,1.01,5.1,1.47,3.59,6.6,3.65,8.09.06.44-1.07.77-2.47.9-4.3,0,0,.93-4.87-3.87-7.22Z"/>
                <path class="cls-10" d="M176.64,299.32s2.02-6.48,9.85-4.09c7.83,2.39,14.58,8.86,11.51,14.04,0,0-3.01,8.34-15.84.62,0,0-8.28-4.73-5.52-10.56Z"/>
                <path class="cls-10" d="M202.5,278.11s-6.75.71-5.94,8.86c.81,8.14,5.84,16.03,11.51,14.04,0,0,8.77-1.32,3.71-15.41,0,0-3.02-9.05-9.28-7.48Z"/>
              </g>
            </g>
            <g class="cls-12">
              <g>
                <path class="cls-10" d="M287.11,759.07c15.82,8.15,26.53-3.86,26.79-13.87.26-10-9.08-15.21-9.08-15.21,0,0-14.09-9.66-24.61,5.27,0,0-11.11,14.53,6.9,23.81Z"/>
                <path class="cls-10" d="M283.26,709.55c.59-.37,1.29-.56,1.99-.48,1.61.19,4.44,1.22,4.76,6.14.31,4.96-1.14,7.23-2,8.12-.35.37-.81.61-1.31.72-1.56.35-5.21.32-6.54-6.87,0,0-1.48-4.78,3.1-7.64Z"/>
                <path class="cls-10" d="M332.51,742.28c.11-.74-.02-1.51-.41-2.15-.85-1.4-2.96-3.47-7.51-1.77-2.1.78-3.55,1.67-4.55,2.52-2.97,2.5-1.46,7.4,2.4,7.73,1.15.1,2.58-.02,4.37-.45,0,0,4.92-.59,5.7-5.88Z"/>
                <path class="cls-10" d="M304.36,698.7s6.79-.04,6.89,8.14c.11,8.18-4.01,16.58-9.87,15.23,0,0-8.86-.33-5.41-14.9,0,0,1.99-9.33,8.39-8.47Z"/>
                <path class="cls-10" d="M332.43,716.89s-2.73-6.21-10.24-2.97c-7.51,3.24-13.5,10.43-9.87,15.23,0,0,3.92,7.95,15.81-1.15,0,0,7.7-5.63,4.31-11.11Z"/>
              </g>
            </g>
          </g>
          <g class="cls-8">
            <g class="cls-9">
              <g>
                <g>
                  <path class="cls-10" d="M550.57,850.83c.64.34,1.34.55,2.06.66.36.05.71.09,1.07.09.31,0,.79.03,1.04-.18.08-.06.06-.21-.03-.26-.27-.13-.67-.04-.97-.04-.35,0-.7-.01-1.05-.05-.69-.07-1.36-.26-2.02-.48-.15-.05-.25.18-.11.26h0Z"/>
                  <path class="cls-10" d="M549.39,848.15c.71.42,1.5.64,2.33.66.77.02,1.7-.11,2.29-.66.11-.1,0-.25-.13-.23-.36.06-.71.17-1.06.26s-.72.12-1.09.13c-.74.01-1.49-.15-2.16-.46-.2-.09-.38.19-.18.3h0Z"/>
                  <path class="cls-10" d="M567.84,845.04c.6-.17,1.18-.42,1.69-.78.25-.17.49-.36.72-.57.2-.19.48-.46.51-.75.01-.07-.08-.14-.15-.12-.13.05-.22.14-.32.23-.11.1-.22.2-.32.3-.21.21-.43.41-.67.59-.47.35-.99.65-1.54.88-.12.05-.04.24.08.21h0Z"/>
                  <path class="cls-10" d="M568.74,848.21c.74-.07,1.44-.26,2.09-.61.32-.17.63-.37.92-.59.27-.21.61-.48.69-.83.02-.1-.07-.23-.18-.19-.32.12-.55.41-.81.62s-.53.41-.82.58c-.6.35-1.26.61-1.93.75-.14.03-.12.27.03.26h0Z"/>
                  <path class="cls-10" d="M558.48,881.84c.44.17.9.26,1.37.26.23,0,.46-.02.69-.07s.49-.12.66-.27c.1-.08.02-.25-.1-.25-.21,0-.42.07-.62.11s-.42.06-.64.07c-.43.01-.85-.05-1.26-.18-.21-.07-.3.25-.09.33h0Z"/>
                  <path class="cls-10" d="M558.91,884.42c.56.29,1.15.45,1.78.47.31.01.62,0,.92-.08s.63-.15.86-.36c.11-.1.03-.31-.12-.3-.28.02-.54.12-.81.17s-.56.09-.85.1c-.57.01-1.14-.09-1.66-.29-.17-.07-.28.21-.12.29h0Z"/>
                  <path class="cls-10" d="M576.35,877.98c.59-.16,1.16-.38,1.69-.68.26-.15.51-.32.75-.51.22-.18.52-.4.59-.69.03-.12-.08-.26-.21-.22-.26.09-.45.33-.65.51-.22.19-.45.37-.68.54-.48.33-.99.59-1.55.76-.18.06-.11.33.07.28h0Z"/>
                  <path class="cls-10" d="M577.57,880.51c.56-.16,1.1-.41,1.57-.76.23-.17.46-.35.64-.57.1-.11.2-.23.28-.35.07-.11.17-.28.16-.41,0-.08-.08-.17-.17-.14-.23.09-.39.36-.55.54-.19.2-.37.4-.59.58-.42.35-.89.63-1.41.81-.18.06-.11.34.07.29h0Z"/>
                  <path class="cls-10" d="M576.02,891.12c-.08-.5-.09-1-.08-1.51,0-.25.03-.49.06-.73s.1-.5.08-.75c0-.12-.17-.19-.24-.07-.13.22-.16.48-.19.73-.03.27-.05.54-.06.81,0,.53.08,1.06.2,1.57.04.15.25.09.23-.06h0Z"/>
                  <path class="cls-10" d="M578.48,884.26c-.33.23-.61.52-.82.87-.2.32-.37.75-.29,1.14.02.08.13.09.17.02.09-.16.16-.33.22-.5.07-.16.15-.32.23-.47.17-.31.4-.59.67-.82.13-.11-.04-.35-.19-.25h0Z"/>
                  <path class="cls-10" d="M581.21,892.21c-.14-.49-.25-.99-.28-1.5s.06-1.01.06-1.52c0-.13-.18-.18-.24-.07-.14.25-.21.49-.24.78s-.04.56-.01.83c.05.56.18,1.1.47,1.58.07.12.28.05.24-.1h0Z"/>
                  <path class="cls-10" d="M582.07,885.79c-.21.22-.39.47-.53.74-.07.13-.14.29-.17.44-.03.16-.06.32-.04.48,0,.05.06.09.11.1.05,0,.1-.02.13-.06.07-.11.12-.24.18-.36,0-.01.02-.03.02-.04l.02-.05s.01-.03,0-.01c0,.02.01-.03.01-.03,0-.02.01-.03.02-.05.03-.06.06-.13.09-.19.06-.12.12-.24.2-.35.04-.06.08-.12.12-.18,0-.01.02-.03.03-.04.02-.03,0,0,.01-.02.02-.03.05-.06.07-.09.07-.08.09-.2,0-.28-.08-.07-.21-.08-.28,0h0Z"/>
                  <path class="cls-10" d="M595.65,893.53c.08.08.17.15.26.22.1.08.2.16.31.23.1.06.19.14.3.19.05.03.1.06.16.08.03.02.07.03.1.04.04.01.08,0,.13,0,.07-.01.12-.1.1-.17-.02-.07-.06-.12-.12-.17-.05-.04-.11-.08-.16-.12-.1-.07-.2-.13-.31-.19s-.2-.11-.31-.17c-.11-.05-.22-.11-.34-.15s-.2.12-.12.2h0Z"/>
                  <path class="cls-10" d="M596.43,893.16s.05,0,.07,0c.01,0,.02,0,.03,0,.04,0-.02,0,0,0,.04.01.09.02.13.04.02,0,.04.02.06.02.03.01-.03-.01,0,0,.01,0,.02.01.04.02.02.01.04.02.06.04.01,0,.04.04.06.04-.02-.02-.02-.02-.01-.01,0,0,0,0,.01.01,0,0,.02.01.03.02.02.02.03.03.05.05.02.02.03.03.05.05,0,0,.01.02.02.02,0,0,0,0,.01.01.01.01,0,.01,0,0,0,0,.03.05.04.06.02.04.05.07.08.09.02.01-.01-.02,0,0,0,0,.01.02.02.02,0,0,0,.01,0,0,0,0,0,.01.01.02.01.01.03.02.04.04.04.03.1,0,.12-.03.02-.03.02-.06.03-.1,0-.01,0-.03,0-.04,0-.03,0,.02,0,0,.02-.08-.02-.16-.06-.24-.06-.11-.15-.2-.25-.28-.2-.14-.44-.19-.68-.14-.16.03-.13.29.03.28h0Z"/>
                  <path class="cls-10" d="M553.23,841.04c-1.95-6.34-3.81-12.7-5.43-19.13-.23-.92-.46-1.84-.68-2.76s-.37-1.87-.69-2.75c-.06-.16-.35-.16-.33.04.08.79.31,1.57.5,2.33.19.81.39,1.62.59,2.44.4,1.62.82,3.24,1.25,4.85.87,3.23,1.79,6.44,2.77,9.64.56,1.81,1.16,3.61,1.79,5.4.05.15.28.09.23-.06h0Z"/>
                  <path class="cls-10" d="M557.66,858.65c.24,1.48.64,2.93,1,4.39s.71,2.8,1.07,4.2c.73,2.85,1.42,5.71,2.12,8.57.06.24.43.14.37-.09-.72-2.85-1.46-5.7-2.15-8.56-.34-1.4-.67-2.81-1.02-4.21-.36-1.45-.69-2.93-1.17-4.34-.05-.14-.24-.09-.22.06h0Z"/>
                </g>
                <path class="cls-10" d="M540.84,811.07c1.14,5.7,2.6,11.38,4.11,17,1.51,5.63,3.08,11.25,4.77,16.83.18.59,1.11.36.94-.24-1.65-5.59-3.27-11.19-4.79-16.82-1.52-5.63-2.95-11.29-4.52-16.9-.09-.33-.57-.2-.51.13h0Z"/>
                <path class="cls-10" d="M540.63,811.12c.72.69,1.91.66,2.83.62,1.63-.07,3.25-.34,4.85-.67,3.36-.69,6.76-1.66,9.89-3.07.74-.34,1.89-.77,2.29-1.54.48-.9-.6-1.68-1.34-1.94-1.27-.45-2.75-.26-4.04-.03-1.81.32-3.57.87-5.3,1.48-1.88.67-3.72,1.43-5.52,2.28-1.07.51-2.34,1.02-3.2,1.85-.51.48.23,1.19.76.76s1.53-.93,2.25-1.29c1.36-.68,2.76-1.3,4.17-1.87,2.83-1.12,6.02-2.36,9.11-2.34.52,0,1.08.04,1.56.25.15.07.3.16.41.27.04.04.08.11.12.14.31.22-.1-.08.05-.06-.03,0,.04-.04-.04.01-.13.09-.22.2-.36.29-.39.27-.83.49-1.26.69-2.76,1.32-5.76,2.17-8.72,2.92-1.67.43-3.37.81-5.09.99-.98.1-2.27.27-3.21-.13-.22-.09-.38.23-.23.39h0Z"/>
                <path class="cls-10" d="M559.68,805.51c.19,1.54.63,3.06.98,4.56.33,1.41.69,2.8,1.04,4.2.73,2.85,1.46,5.7,2.24,8.54.77,2.84,1.58,5.67,2.39,8.5s1.47,5.83,2.41,8.67c.14.44.81.28.7-.18-.68-2.91-1.64-5.77-2.39-8.67-.74-2.85-1.47-5.7-2.2-8.55-.74-2.85-1.49-5.69-2.23-8.54-.36-1.4-.72-2.8-1.1-4.19-.41-1.49-.74-3.04-1.3-4.48-.13-.33-.57-.21-.53.14h0Z"/>
                <path class="cls-10" d="M552.39,855.02c.1,1.94.85,3.93,1.33,5.81.51,2.01,1.03,4.02,1.54,6.03.5,1.95,1.01,3.91,1.52,5.86.53,2.04.92,4.19,1.64,6.17.18.5.88.32.79-.2-.33-2.03-1.01-4.04-1.53-6.03-.52-2.01-1.04-4.01-1.57-6.02-.51-1.95-1.03-3.9-1.54-5.85-.51-1.92-.82-4.09-1.71-5.88-.11-.22-.49-.13-.48.12h0Z"/>
                <path class="cls-10" d="M571.36,851.7c.53,3.73,1.85,7.35,2.99,10.92,1.15,3.6,2.29,7.2,3.17,10.87.13.55.98.33.84-.22-.91-3.66-2.04-7.27-3.14-10.88s-2.07-7.28-3.33-10.83c-.12-.34-.59-.21-.54.14h0Z"/>
                <path class="cls-10" d="M549.46,845.14c1.78.09,3.7-.34,5.46-.62,1.93-.31,3.86-.68,5.77-1.12,1.85-.44,3.69-.95,5.51-1.51,1.17-.36,3.21-.77,3.64-2.09.08-.26-.19-.55-.45-.46-.62.2-1.11.65-1.71.91-.81.35-1.69.58-2.53.83-1.72.51-3.46.96-5.2,1.4-1.69.42-3.39.79-5.1,1.12-1.79.34-3.7.45-5.45.96-.34.1-.28.59.07.61h0Z"/>
                <path class="cls-10" d="M549.28,844.79c-.47.58-.36,1.56-.27,2.25.13,1.02.42,2.02.69,3.01.27,1,.56,1.99.88,2.97.25.76.56,1.96,1.3,2.38.29.16.59-.1.54-.4-.08-.41-.37-.76-.55-1.13-.21-.43-.37-.88-.53-1.34-.3-.89-.57-1.79-.83-2.69-.24-.87-.48-1.74-.66-2.62-.08-.44-.16-.87-.21-1.31-.05-.37-.05-.75-.22-1.1-.02-.05-.11-.06-.14-.02h0Z"/>
                <path class="cls-10" d="M551.91,855.35c1.72.53,3.76.48,5.54.47,1.93-.02,3.85-.2,5.75-.54s3.7-.78,5.46-1.46c1.48-.57,3.27-1.4,4.25-2.71.29-.39-.26-.91-.65-.66-.69.45-1.29,1.01-2.01,1.43-.76.44-1.58.8-2.4,1.11-1.63.6-3.33,1.03-5.04,1.36-1.76.33-3.55.54-5.33.63s-3.68-.18-5.49-.07c-.25.02-.32.36-.07.44h0Z"/>
                <path class="cls-10" d="M569.23,839.74c.09.33.32.6.46.91.18.41.27.86.38,1.29.26,1.03.54,2.05.81,3.07s.55,2.05.82,3.07c.14.51.27,1.02.41,1.54.12.44.17.89.49,1.23.17.19.54.1.6-.15.11-.52-.11-1.02-.25-1.53s-.28-1.02-.41-1.53c-.31-1.13-.61-2.27-.92-3.4-.29-1.07-.57-2.14-.89-3.2-.19-.61-.51-1.58-1.28-1.59-.15,0-.27.14-.23.29h0Z"/>
                <path class="cls-10" d="M543.76,822.82c.73.31,1.62.22,2.39.19.83-.03,1.65-.09,2.48-.18,1.69-.18,3.37-.47,5.02-.87,1.66-.4,3.3-.91,4.88-1.55,1.45-.58,3.18-1.19,4.39-2.2.34-.28-.02-.88-.43-.75-.72.24-1.39.67-2.07.99-.8.38-1.61.73-2.44,1.06-1.49.59-3.02,1.1-4.58,1.5-1.62.41-3.26.72-4.92.91-.82.09-1.65.16-2.48.19-.73.03-1.55-.04-2.24.23-.23.09-.23.37,0,.47h0Z"/>
                <path class="cls-10" d="M544.6,822.49c.31-1.45,2.51-2.19,3.75-2.7,1.56-.65,3.18-1.06,4.82-1.42,1.54-.34,3.09-.65,4.65-.85.83-.11,1.68-.17,2.52-.16.77,0,1.57.21,2.33.14.35-.04.57-.51.2-.71-1.42-.78-3.61-.42-5.15-.22-1.96.26-3.94.64-5.84,1.18-1.13.32-9.16,2.83-7.68,4.8.1.14.36.16.4-.05h0Z"/>
                <path class="cls-10" d="M558.78,878.97c1.58.54,3.46.36,5.09.18,1.73-.2,3.43-.57,5.11-1.01s3.31-.92,4.91-1.51c1.43-.52,3.12-1.21,3.97-2.54.23-.36-.22-.79-.58-.59-.65.37-1.23.84-1.88,1.19-.71.38-1.45.68-2.21.95-1.53.53-3.09.97-4.64,1.43-1.53.45-3.07.84-4.65,1.08-1.69.25-3.33.09-5.02.18-.37.02-.46.53-.1.65h0Z"/>
                <path class="cls-10" d="M558.56,878.17c-.54.56-.64,1.31-.64,2.06,0,.97.08,1.95.3,2.89.2.84.51,1.7,1,2.41.41.61,1.05,1.55,1.86,1.58.18,0,.36-.19.29-.37-.13-.36-.37-.55-.63-.81-.25-.25-.47-.52-.66-.81-.43-.64-.76-1.32-.99-2.06-.25-.81-.38-1.65-.44-2.49-.05-.69-.17-1.53.25-2.13.14-.21-.17-.45-.35-.27h0Z"/>
                <path class="cls-10" d="M577.99,873.07c.6,1.36,1.31,2.64,1.69,4.09.19.72.31,1.46.38,2.2s.03,1.42.19,2.11c.06.27.42.23.51,0,.28-.72.24-1.5.18-2.26s-.21-1.58-.42-2.35c-.4-1.48-1.01-3.02-2.11-4.11-.22-.22-.52.05-.41.31h0Z"/>
                <path class="cls-10" d="M561.04,886.85c3.42.48,7.02,0,10.35-.84,1.64-.42,3.24-1,4.79-1.67,1.45-.63,3.43-1.36,4.45-2.62.21-.25.03-.65-.33-.57-.73.17-1.39.6-2.05.94-.73.37-1.46.75-2.21,1.09-1.6.72-3.24,1.29-4.93,1.77-3.31.95-6.66,1.23-10.07,1.44-.3.02-.3.42,0,.46h0Z"/>
                <path class="cls-10" d="M567.59,887.16c.53.19,1.02.45,1.56.62s1.02.33,1.54.5c1.03.33,2.05.73,3.1,1,.59.15.82-.71.26-.9-1.02-.35-2.09-.58-3.13-.87-.52-.14-1.04-.29-1.56-.43s-1.1-.21-1.64-.34c-.27-.07-.38.32-.12.41h0Z"/>
                <path class="cls-10" d="M577.67,883.13c-.35.13-.73.23-1.04.42-.3.19-.58.41-.83.67-.53.55-.95,1.19-1.25,1.89s-.47,1.52-.47,2.31.06,1.7.6,2.29c.19.21.54.05.55-.22.02-.67-.23-1.33-.23-2s.12-1.39.39-2.03c.24-.58.59-1.11,1.01-1.56.22-.23.44-.46.68-.67.26-.22.47-.48.76-.66.21-.13.09-.53-.18-.43h0Z"/>
                <path class="cls-10" d="M580.56,884.59c-1.53-.04-2.18,1.89-2.5,3.09-.19.7-.28,1.44-.3,2.17,0,.38,0,.76.04,1.14s.06.79.2,1.14c.17.45.93.46.91-.11-.02-.63-.16-1.25-.15-1.88s.09-1.28.24-1.91.33-1.2.61-1.76c.25-.52.57-1.09,1.09-1.37.24-.13.13-.49-.13-.5h0Z"/>
                <path class="cls-10" d="M577.13,883.93c.13.08.27.16.41.22.12.05.24.09.36.14.26.1.53.2.79.29l.77.27c.28.09.56.2.85.22.15,0,.3-.11.35-.26.04-.16-.03-.31-.16-.4-.23-.16-.52-.24-.79-.33l-.8-.27c-.26-.09-.52-.17-.78-.25-.13-.04-.26-.09-.39-.12-.15-.03-.31-.04-.46-.07-.13-.02-.26.1-.29.22-.04.13.02.27.14.34h0Z"/>
                <path class="cls-10" d="M574.17,890.82c.28.16.57.31.89.39s.62.14.93.18c.3.04.59.07.89.08.35.02.72.05,1.05-.1.14-.07.22-.26.2-.41-.02-.17-.13-.29-.29-.35-.29-.11-.64-.06-.94-.07s-.58-.03-.86-.06c-.27-.03-.54-.06-.81-.1-.31-.05-.61-.05-.92-.06-.27-.01-.37.37-.14.5h0Z"/>
                <path class="cls-10" d="M577.88,891.25c.72.53,1.64.86,2.5,1.08.43.11.86.2,1.29.28.5.09.99.17,1.49.11.2-.03.35-.26.35-.45,0-.21-.14-.39-.34-.46-.41-.14-.87-.16-1.3-.22s-.87-.15-1.3-.25c-.85-.2-1.71-.43-2.57-.55-.27-.04-.3.33-.13.46h0Z"/>
                <path class="cls-10" d="M580.03,885.47c.41.19.82.35,1.26.48s.85.21,1.28.3c.88.19,1.77.39,2.66.49.2.02.4-.15.45-.34.01-.04.02-.08.02-.12,0-.19-.14-.41-.34-.45-.86-.18-1.73-.3-2.59-.47-.42-.08-.83-.18-1.25-.25-.45-.08-.89-.13-1.35-.16-.27-.02-.4.4-.15.52h0Z"/>
                <path class="cls-10" d="M585.5,885.92c-1.04.6-1.94,1.55-2.46,2.64-.27.56-.44,1.15-.49,1.77-.05.59.04,1.24.46,1.68.16.17.41.03.43-.17.05-.51-.02-1.02.04-1.53s.22-.98.45-1.41c.5-.95,1.26-1.68,1.92-2.52.19-.24-.04-.63-.35-.46h0Z"/>
                <path class="cls-10" d="M584.65,887.37c1.76,1.3,3.95,1.91,6.02,2.52,1.05.31,2.1.62,3.15.95s2.09.85,3.17,1.11c.49.12.7-.49.33-.77-.84-.62-1.98-.93-2.96-1.25-1.07-.35-2.17-.62-3.26-.91-2.14-.57-4.21-1.26-6.26-2.09-.27-.11-.39.29-.19.44h0Z"/>
                <path class="cls-10" d="M582.77,891.87c.71.52,1.61.85,2.43,1.16s1.69.61,2.55.89c1.77.58,3.57,1.1,5.39,1.47.5.1,1.89.61,2.23.03.42-.69-.84-.89-1.24-.97-1.79-.37-3.58-.78-5.34-1.27-.99-.28-1.98-.58-2.96-.91s-1.93-.72-2.93-.86c-.27-.04-.3.33-.13.46h0Z"/>
                <path class="cls-10" d="M597.35,891.24c-.51-.01-.99.37-1.36.68s-.65.67-.89,1.06-.42.84-.52,1.28c-.06.24-.09.48-.09.73,0,.11,0,.22.01.33.02.2.1.33.22.48.14.18.44.1.54-.07.08-.13.13-.25.15-.4.01-.09.01-.19.03-.28-.01.09.01-.06.02-.08.01-.05.02-.1.03-.16.02-.09.03-.18.06-.27.05-.2.11-.39.18-.58.04-.11-.02.04.02-.05.02-.05.05-.1.07-.15.05-.09.09-.18.14-.27.05-.08.09-.16.15-.24.03-.05.06-.09.09-.13.01-.02.11-.14.05-.07.13-.16.26-.31.41-.44.07-.06.14-.12.21-.18.08-.07-.03.02.05-.04.05-.04.1-.07.15-.11.06-.04.12-.08.17-.13,0,0,.11-.08.05-.04.1-.08.21-.14.29-.24.2-.24.08-.63-.26-.64h0Z"/>
                <path class="cls-10" d="M596.99,892.21c.29.03.6.18.85.33s.48.38.62.64c.33.59.2,1.23-.16,1.77-.39.58-1.1,1.08-1.82,1.06s-1.14-.53-1.63-.98c-.16-.15-.47-.06-.47.19.01.39.18.71.48.97.28.23.6.41.95.51.79.22,1.62-.02,2.27-.49,1.17-.85,1.85-2.55.87-3.8-.25-.31-.58-.56-.97-.68s-.76-.03-1.08.17c-.14.09-.08.29.08.3h0Z"/>
                <path class="cls-10" d="M597.25,896.49c.47.64.33,1.54.34,2.28.01.88.07,1.76.17,2.63.17,1.39.52,2.87,1.54,3.89.9.9,2.7,1.22,2.99-.4.26-1.46-.03-3.11-.54-4.49-.31-.84-.71-1.64-1.23-2.37s-1.24-1.38-1.8-2.13c-.35-.46-1-.09-.77.45.35.83,1.13,1.39,1.66,2.11s.95,1.51,1.24,2.34c.27.79.44,1.6.48,2.43.02.43.02.88-.02,1.31-.04.42-.19.62-.63.5-.78-.21-1.3-1.1-1.57-1.79-.29-.74-.43-1.55-.52-2.34-.11-.98-.14-1.96-.16-2.95-.01-.76-.1-1.44-.74-1.92-.25-.19-.62.18-.43.43h0Z"/>
              </g>
            </g>
            <g class="cls-9">
              <g>
                <path class="cls-10" d="M488.5,945.62c.52,1.1,1.32,2.16,2.35,2.83.15.1.32-.12.19-.25-.42-.41-.85-.83-1.23-1.28s-.72-.95-1.01-1.47c-.11-.2-.4-.03-.31.17h0Z"/>
                <path class="cls-10" d="M485.86,949.66c.49,1.24,1.33,2.36,2.53,2.99.16.08.27-.13.14-.23-1.01-.75-1.88-1.7-2.4-2.86-.07-.15-.32-.05-.26.11h0Z"/>
                <path class="cls-10" d="M481.64,957.28c.43.89,1.12,1.73,2.02,2.17.2.1.33-.16.17-.29-.75-.58-1.41-1.22-1.85-2.07-.11-.22-.44-.03-.34.19h0Z"/>
                <path class="cls-10" d="M532.52,952.37c-.3.06-.59.15-.9.2s-.61.05-.92.04c-.61-.02-1.22-.16-1.8-.35-.16-.05-.25.19-.11.27.58.33,1.24.48,1.91.49.32,0,.65-.02.97-.08s.67-.13.97-.29c.16-.09.05-.32-.11-.28h0Z"/>
                <path class="cls-10" d="M529.48,958.41c-.34,0-.69,0-1.03-.07s-.67-.15-1.01-.24c-.14-.04-.24.18-.1.25.33.17.7.27,1.07.31s.74.05,1.1-.03c.13-.03.1-.23-.03-.23h0Z"/>
                <path class="cls-10" d="M525.64,964.85c-.31-.02-.63-.05-.94-.07-.16-.01-.31-.02-.47-.04s-.31,0-.47,0c-.08,0-.16.06-.17.15,0,.08.04.17.12.18.16.03.32.06.48.07s.33.02.49.03c.32.02.64.04.96.06.1,0,.19-.09.19-.19,0-.11-.09-.18-.19-.19h0Z"/>
                <path class="cls-10" d="M519.4,974.64c-.45.03-.9.02-1.34-.05-.45-.07-.89-.18-1.33-.28-.17-.04-.29.2-.12.29.84.46,1.86.54,2.8.45.11-.01.2-.09.2-.2,0-.1-.09-.21-.2-.2h0Z"/>
                <path class="cls-10" d="M513.19,984.9c-.23-.09-.46-.19-.69-.28s-.47-.15-.7-.23c-.18-.06-.3.22-.13.31.22.11.44.23.66.33s.46.19.69.29c.13.05.27.03.33-.11s-.02-.26-.15-.31h0Z"/>
                <path class="cls-10" d="M472.17,974.46c.31.23.63.46.94.69s.64.44.96.65c.09.06.2-.08.12-.15-.31-.24-.61-.49-.93-.72s-.64-.46-.96-.69c-.13-.1-.26.13-.13.22h0Z"/>
                <g>
                  <g>
                    <path class="cls-10" d="M531.3,924.05c-.86-1.17-2.55-1.07-3.34.12-.39.59-.49,1.35-.24,2.01s.75,1.17,1.3,1.59c.66.51,1.41.92,2.16,1.29.62.31,1.29.59,1.99.59,1.48,0,2.35-1.37,2.19-2.74-.09-.82-.5-1.52-1.1-2.08-.65-.6-1.54-1.19-2.42-1.32-.31-.05-.66.35-.35.6.92.76,2.2,1.06,2.77,2.22.37.74.29,1.98-.6,2.32-.48.19-1.02.06-1.49-.11-.59-.2-1.15-.5-1.69-.8-.88-.49-2.13-1.18-2.18-2.33-.06-1.46,1.75-2.03,2.78-1.19.11.09.32-.03.22-.16h0Z"/>
                    <path class="cls-10" d="M508.1,928.62c.94-1.68,1.81-3.39,2.84-5.01s2.24-3.27,3.52-4.78c1.06-1.26,2.16-2.65,3.58-3.51,1.52-.92,3.13-.79,4.74-.21,3.56,1.27,6.98,3.46,9.85,5.91,1.27,1.09,2.64,2.26,3.49,3.72.91,1.55.79,3.15.25,4.79-.66,1.99-1.54,3.92-2.49,5.79-.51.99-1.04,1.96-1.62,2.92-.57.95-1.25,1.85-1.74,2.84-.25.5.39,1.1.82.64,1.44-1.55,2.47-3.65,3.44-5.52.95-1.83,1.79-3.71,2.5-5.64.61-1.65,1.02-3.45.42-5.17-.55-1.58-1.72-2.85-2.93-3.95-3.14-2.85-6.76-5.24-10.67-6.91-1.55-.66-3.26-1.21-4.95-.8-1.56.38-2.83,1.49-3.9,2.63-1.59,1.7-3.01,3.57-4.29,5.51-1.34,2.04-2.63,4.2-3.49,6.49-.13.36.43.58.62.26h0Z"/>
                    <path class="cls-10" d="M515.83,916.69c.95,1.46,2.72,2.24,4.22,3,1.89.96,3.77,1.96,5.61,3.02,3.67,2.11,7.1,4.51,10.59,6.9.46.32.85-.41.43-.73-3.22-2.51-6.79-4.68-10.34-6.7-1.76-1-3.55-1.96-5.37-2.86-.86-.42-1.73-.83-2.56-1.31s-1.54-1.05-2.31-1.58c-.16-.11-.37.1-.27.26h0Z"/>
                  </g>
                  <g>
                    <path class="cls-10" d="M500.92,958.33c-.04-.3-.08-.61-.1-.92s-.07-.62-.05-.93c.03-.56.24-1.05.69-1.41.4-.32.93-.48,1.44-.37.27.06.53.18.74.35.24.19.41.44.64.64.19.15.51.08.51-.21-.01-.62-.57-1.1-1.09-1.35-.54-.27-1.16-.36-1.76-.2-1.13.3-1.95,1.41-1.86,2.59.02.32.07.68.2.98s.28.6.45.89c.05.08.21.06.19-.05h0Z"/>
                    <path class="cls-10" d="M504.57,955.61c.27-.32.59-.61.98-.76.37-.14.81-.17,1.17.01s.63.49.76.87c.06.19.1.39.09.59,0,.24-.1.45,0,.68.05.12.21.13.32.09.43-.19.36-.9.29-1.26-.09-.42-.3-.82-.6-1.12-.63-.63-1.64-.74-2.41-.3-.43.24-.76.61-.82,1.1-.01.11.16.18.23.1h0Z"/>
                    <path class="cls-10" d="M507.61,956.96c.22.03.44.04.65.11s.42.16.61.27c.37.23.68.58.84.98.34.83-.11,1.68-.79,2.11-.22.14-.41.22-.66.28s-.53.05-.74.24c-.06.06-.07.16-.03.23.31.56,1.23.24,1.66.02.51-.26.95-.71,1.19-1.23.52-1.14.07-2.41-.97-3.07-.51-.33-1.23-.52-1.8-.23-.11.06-.1.27.04.29h0Z"/>
                    <path class="cls-10" d="M499.86,963.15c-.53-.8-1.38-1.42-2.15-1.98-.81-.59-1.67-1.13-2.55-1.61-.33-.18-.7-.42-1.09-.41-.41.01-.75.3-1.06.54-.76.58-1.45,1.24-2.09,1.94-1.04,1.13-2.21,2.58-2.08,4.22.06.69.38,1.5,1.14,1.65s1.61-.35,2.2-.74c.85-.55,1.54-1.28,2.15-2.09.33-.43.62-.89.9-1.35s.59-.95.67-1.51c.04-.32-.4-.44-.6-.25-.54.51-.81,1.33-1.19,1.96-.42.68-.89,1.33-1.46,1.9-.49.5-1.04.94-1.68,1.21-.29.12-.76.34-1.04.11-.27-.22-.33-.68-.34-1.01-.05-1.35.94-2.57,1.8-3.51.52-.57,1.09-1.08,1.69-1.56.26-.21.56-.5.87-.64s.74.2,1.02.36c.81.44,1.59.94,2.34,1.47s1.42,1.18,2.22,1.62c.2.11.47-.12.33-.33h0Z"/>
                    <path class="cls-10" d="M494.83,963.65c.44.32.91.71,1.2,1.14.16.24.28.48.35.71.05.14.07.29.12.44.06.2.11.42.3.53.15.08.34.06.47-.06.32-.3.08-.88-.06-1.22s-.32-.62-.53-.9c-.42-.55-.97-1.01-1.65-1.16-.32-.07-.46.33-.21.51h0Z"/>
                    <path class="cls-10" d="M498.72,966.98c-.28.53-.45,1.13-.5,1.73-.04.56.09,1.17.54,1.54s1.06.39,1.55.06c.42-.3.72-.75.98-1.19.15-.26.29-.55.37-.85.04-.16.08-.33.08-.49,0-.19-.13-.34-.25-.47-.1-.11-.32-.09-.38.05-.04.08-.09.14-.12.22-.06.12-.05.26-.08.37-.04.21-.11.38-.21.56s-.21.37-.33.55-.17.25-.31.4-.21.22-.38.29c.05-.02-.06.02-.08.02-.02,0-.04.01-.06.01.01,0,.04,0,0,0-.08,0-.14-.01-.2-.04-.35-.17-.43-.61-.43-.97,0-.55.1-1.1.19-1.64.03-.21-.25-.36-.36-.15h0Z"/>
                    <path class="cls-10" d="M505.16,968.29c-.09.1-.17.16-.23.3s-.11.26-.16.39c-.09.25-.13.55-.14.82-.03.53.17,1.08.54,1.46s.91.58,1.43.43c.53-.16.9-.59,1.1-1.09.12-.29.16-.62.17-.94,0-.33.02-.78-.2-1.05-.13-.15-.41-.11-.5.06-.12.24-.06.53-.05.78,0,.22,0,.45-.04.67-.08.34-.25.64-.54.8-.27.15-.57.08-.79-.13-.27-.25-.38-.57-.41-.95-.02-.26.02-.51.04-.76,0-.12.02-.25.03-.37.02-.14-.02-.24-.04-.37-.01-.08-.14-.11-.19-.05h0Z"/>
                    <path class="cls-10" d="M497.12,967.48c.05,2.22-1.83,3.65-2.79,5.47-.82,1.54-1.25,3.4-.68,5.09.51,1.5,1.7,2.8,3.33,3.03.74.11,1.51,0,2.19-.31.55-.25,1.32-.75,1.19-1.44-.02-.12-.16-.18-.27-.16-.28.06-.48.27-.7.46-.29.25-.6.44-.97.56-.66.21-1.42.17-2.06-.11-1.43-.62-2.17-2.29-2.18-3.78,0-1.77.86-3.31,1.88-4.7.89-1.21,1.88-2.59,1.47-4.17-.06-.22-.41-.19-.41.05h0Z"/>
                    <path class="cls-10" d="M501.74,980.01c-.13-.1-.21-.22-.33-.33-.13-.13-.29-.23-.43-.35-.24-.23-.45-.48-.63-.77-.27-.44-.57-1.05-.35-1.58.19-.47.73-.52,1.18-.49.68.04,1.36.24,2.01.43.17.05.34.11.51.16.19.06.38.16.58.17.19,0,.4-.1.46-.3.06-.24-.1-.45-.3-.55-.35-.18-.75-.28-1.12-.4-.35-.11-.71-.2-1.08-.28-.62-.14-1.26-.26-1.89-.11s-1.16.63-1.3,1.28c-.16.74.08,1.55.51,2.16.23.33.5.62.81.88.16.13.33.27.51.37s.39.12.59.17c.25.07.49-.28.27-.46h0Z"/>
                    <path class="cls-10" d="M504.05,977c.34.11.61.4.79.7.19.33.21.62-.03.97-.26.39-.74.59-1.18.71-.26.07-.53.12-.8.17-.29.06-.62.12-.87.29-.32.22-.19.66.18.7s.76-.05,1.13-.11c.33-.05.66-.13.98-.25.65-.25,1.26-.7,1.51-1.37.2-.54.09-1.2-.3-1.63-.18-.19-.42-.34-.67-.42s-.49-.06-.74.03c-.1.04-.11.17,0,.21h0Z"/>
                    <path class="cls-10" d="M500.78,979.62c-.63.38-.58,1.22-.5,1.86s.27,1.32.79,1.76c1.08.91,2.68.31,3.35-.8.2-.33.34-.71.42-1.09.08-.41.21-.95-.13-1.27-.12-.12-.34-.14-.47,0-.11.11-.18.23-.21.38s-.02.32-.03.48c-.02.27-.09.54-.18.79-.16.43-.46.82-.89,1-.36.16-.82.18-1.16-.02-.39-.22-.55-.69-.64-1.1-.13-.57-.15-1.18-.04-1.75.03-.17-.14-.34-.31-.24h0Z"/>
                    <path class="cls-10" d="M504.1,967.13c-.82,1.59-1.1,3.43-1.03,5.21.04.9.16,1.79.4,2.65.12.44.28.88.45,1.31.16.39.32.94.7,1.15.31.17.62-.05.66-.37.04-.39-.27-.81-.42-1.15-.17-.38-.31-.77-.43-1.17-.24-.8-.42-1.63-.5-2.46-.15-1.69.11-3.35.56-4.98.06-.23-.28-.38-.39-.16h0Z"/>
                    <path class="cls-10" d="M501.43,959.01c0-1.53-1.77-2.37-3.04-1.63-.33.19-.61.47-.88.74-.29.29-.57.61-.77.97-.31.56-.55,1.58.17,1.92.17.08.34-.02.36-.2.01-.12.04-.23.04-.35,0-.13-.03-.25-.02-.37.01-.23.1-.45.21-.64.15-.26.36-.48.56-.7s.41-.46.65-.64c.38-.28.9-.34,1.33-.16.45.2.76.66.87,1.13.07.3.53.24.53-.07h0Z"/>
                    <path class="cls-10" d="M501.48,959.17c.14-.12.24-.23.41-.31.14-.06.3-.1.46-.11.31-.01.61.05.87.21.6.36.74,1.05.97,1.65.08.2.2.43.45.43.2,0,.32-.17.35-.34.07-.37-.16-.85-.3-1.18-.29-.67-.87-1.2-1.58-1.37-.38-.09-.8-.09-1.17.04s-.84.4-.83.83c0,.19.22.28.37.16h0Z"/>
                    <path class="cls-10" d="M504.72,960.92c.07-.07-.01,0,.05-.04.05-.03.1-.05.14-.09.07-.05.13-.1.19-.14.14-.09.29-.17.45-.23.33-.11.64-.1.95.02.03.01,0,0,.05.02.04.02.08.04.12.07s.08.05.11.08c-.05-.04.04.04.05.05.14.13.2.21.29.38.15.29.15.57.16.94,0,.17.11.33.28.37.15.04.36-.03.43-.18.45-.95-.31-2.15-1.23-2.48-.44-.16-.96-.11-1.39.06-.23.09-.43.21-.6.38-.08.08-.16.17-.22.27-.07.12-.07.23-.11.35-.05.15.16.28.27.16h0Z"/>
                    <path class="cls-10" d="M507.98,962.13c.2.02.41-.05.61-.11s.39-.1.59-.14c.32-.06.76-.16,1.05.05.22.15.35.49.36.77.01.18,0,.36-.03.54-.04.23-.1.47-.04.69.06.24.41.37.59.17s.25-.49.29-.76c.04-.25.06-.5.04-.76-.05-.53-.28-1.02-.73-1.33-.44-.3-.99-.25-1.49-.15-.24.05-.47.11-.71.19-.25.08-.56.17-.73.38-.15.19-.06.43.19.46h0Z"/>
                    <path class="cls-10" d="M507.69,965.25c.74-.34,1.57-.47,2.36-.65.75-.17,1.54-.3,2.32-.28.84.02,1.57.34,1.98,1.1.37.68.41,1.49.36,2.25-.11,1.58-.37,3.4-1.34,4.71-.37.5-1.03,1.26-1.69.8-.55-.37-.82-1.08-1.01-1.69-.24-.76-.33-1.57-.29-2.37.02-.39.08-.78.18-1.16s.23-.74.21-1.14c-.01-.25-.29-.35-.47-.2-.64.54-.75,1.65-.83,2.43-.08.85,0,1.72.23,2.55.42,1.49,1.75,3.61,3.51,2.36,1.68-1.19,2.18-3.41,2.34-5.34.14-1.74.08-4.03-1.82-4.81-.99-.41-2.16-.24-3.18,0-.49.11-.97.26-1.44.45-.53.22-1.01.56-1.51.82-.12.06-.02.24.1.18h0Z"/>
                    <path class="cls-10" d="M510.13,967.02c-.15-.06-.29-.12-.44-.18-.17-.06-.34-.08-.52-.09-.33-.02-.68.07-.99.19-.21.08-.53.18-.59.43-.03.16.01.31.16.4.08.05.17.06.26.05.08-.01.15-.05.22-.09.07-.04.13-.07.2-.1.02,0,.03-.01.05-.02.08-.04-.05.02,0,0,.04-.01.08-.03.12-.04.15-.05.31-.09.46-.11.09-.01.17-.03.26-.05.02,0,.03,0,.05,0,.02,0,.02,0-.02,0,.01,0,.03,0,.04,0,.06,0,.12-.01.18-.02.16-.03.29-.05.47-.02.22.03.3-.25.09-.33h0Z"/>
                    <path class="cls-10" d="M499.82,961.79c-.28.57-.28,1.3-.18,1.91.1.62.42,1.25.9,1.65.54.45,1.19.63,1.89.5.63-.11,1.24-.42,1.73-.82s1.13-1.23.77-1.91c-.11-.21-.41-.2-.53,0-.16.25-.22.54-.38.8s-.38.45-.61.6c-.48.32-1.15.63-1.74.47s-1-.66-1.19-1.2c-.23-.64-.13-1.28-.22-1.94-.03-.2-.34-.23-.43-.06h0Z"/>
                    <path class="cls-10" d="M504.24,964.29c0,.28,0,.55.08.83.08.29.27.55.48.77.39.42.95.7,1.53.72.55.02,1.11-.17,1.52-.55.24-.22.39-.5.52-.79s.32-.58.28-.91c-.02-.13-.17-.19-.28-.17-.3.05-.45.35-.59.58-.12.21-.24.41-.41.59-.26.27-.6.38-.96.37s-.7-.13-.98-.41c-.15-.15-.26-.32-.38-.49-.13-.19-.26-.38-.32-.6-.07-.26-.48-.22-.48.06h0Z"/>
                    <path class="cls-10" d="M496.94,969.18c-.07-.59-.29-1.07-.71-1.5s-.95-.76-1.54-.93c-.55-.15-1.13-.17-1.68-.06-.45.08-1.33.3-1.43.84-.03.14.04.3.19.33.23.04.47-.06.68-.17.19-.1.4-.16.61-.21.44-.1.91-.1,1.36,0,.95.24,1.68.98,2.21,1.77.08.12.34.1.31-.08h0Z"/>
                    <path class="cls-10" d="M491.72,968.26c.13-.62-.36-.95-.85-1.21-.59-.31-1.23-.53-1.9-.6-1.24-.13-2.66.44-3.04,1.72.2,0,.41,0,.61,0-.33-1.01-1.2-1.59-2.22-1.81-.89-.19-2.34-.15-2.61.94-.08.33.36.51.54.23.79-1.21,3.34-.52,3.67.8.06.24.47.34.58.08.41-.93,1.33-1.37,2.32-1.3.48.04.95.19,1.4.37.42.17.99.38,1.2.82.06.12.26.09.28-.04h0Z"/>
                    <path class="cls-10" d="M503.89,974.16c.19.13.43.17.65.24.26.08.51.19.74.32.49.28.91.66,1.27,1.09s.65.91.72,1.46c.07.56-.16,1.09-.29,1.62-.08.32.2.57.51.51.63-.13,1.15.49,1.24,1.07.11.74-.39,1.28-.5,1.96-.02.15.1.33.27.27.96-.34,1.25-1.74.98-2.61s-1.15-1.54-2.09-1.51l.36.63c.29-.62.5-1.3.43-1.99s-.47-1.29-.91-1.82c-.44-.53-.99-.99-1.61-1.3-.47-.24-1.25-.55-1.75-.25-.12.07-.11.23,0,.31h0Z"/>
                    <path class="cls-10" d="M501.68,945.81c-.33-.71-.7-1.35-1.35-1.81-.55-.4-1.22-.54-1.89-.4-1.27.25-2.31,1.37-2.68,2.58-.38,1.26.07,2.65,1.16,3.4s2.48.45,3.48-.24c.58-.39,1.09-.92,1.39-1.56.28-.6.52-1.47-.09-1.94-.17-.13-.38.02-.44.18-.16.42-.08.88-.26,1.3s-.49.79-.84,1.08c-.67.56-1.66.94-2.52.61s-1.33-1.42-1.16-2.32c.18-.97.91-1.9,1.85-2.23.56-.2,1.13-.14,1.62.2.26.18.47.41.68.65.23.26.47.51.7.78.17.21.45-.05.35-.26h0Z"/>
                    <path class="cls-10" d="M514.56,950.11c-.31-.41-.89-.56-1.37-.38-.51.2-.87.71-.84,1.27s.37,1.02.91,1.2c.48.16,1.07.03,1.39-.37.2-.24.31-.51.34-.82.01-.14,0-.28-.04-.42-.02-.08-.05-.18-.1-.25-.06-.08-.15-.12-.24-.16-.15-.06-.28.09-.29.22,0,.07.01-.05,0,.01-.01.05-.01.09,0,.14s.03.09.04.13c-.02-.07,0,.01,0,.02.01.04.02.08.03.12,0,.01,0,.05,0,0,0,.03,0,.07,0,.1,0,.15-.03.28-.11.41-.01.02-.03.04-.03.05-.02.04.05-.04,0,0-.03.03-.06.06-.09.09-.06.06.05-.03-.02.02-.01,0-.03.02-.04.03-.02.01-.04.03-.07.04,0,0-.08.03-.02.01-.04.01-.08.03-.12.04-.02,0-.05.01-.08.01.06,0,0,0-.01,0-.05,0-.09,0-.14,0-.02,0-.03,0-.05,0,.07,0-.02,0-.03,0-.05-.01-.09-.03-.14-.04-.02,0-.05-.03,0,0-.02-.01-.05-.02-.07-.03-.04-.02-.07-.04-.11-.07-.06-.04.02.03,0,0-.02-.02-.05-.04-.06-.06-.01-.01-.03-.04-.04-.05-.03-.03.04.06,0,0-.02-.04-.04-.07-.06-.11,0-.01-.03-.09,0-.02,0-.02-.01-.03-.02-.05-.01-.05-.03-.1-.03-.15.01.08,0-.05,0-.07,0-.04,0-.09,0-.13,0-.08-.02.07,0-.02,0-.02,0-.04.01-.06.01-.05.03-.1.04-.15.01-.05-.04.07,0,0,.01-.02.02-.05.04-.07s.09-.12.04-.06c.03-.03.06-.06.09-.09.01-.01.03-.02.04-.03-.06.05.03-.02.04-.03.01,0,.03-.02.05-.03.01,0,.11-.05.05-.02.05-.02.1-.03.15-.04.02,0,.03,0,.05,0-.06.01.04,0,.05,0,.05,0,.1,0,.16,0,.02,0,.03,0,.05,0,0,0,.11.01.06,0,.05,0,.09.02.14.03.08.02.16.07.25.13.08.06.2.02.25-.05.06-.08.05-.18-.01-.26h0Z"/>
                    <path class="cls-10" d="M517.75,957.87c-.14-.49-.44-.89-.89-1.14-.42-.23-.88-.32-1.35-.25-.41.06-.82.27-1.1.59-.35.4-.43.9-.48,1.41-.05.44-.04.9.15,1.31s.61.74,1.03.93c.82.35,1.82.23,2.49-.39.35-.32.6-.76.67-1.23.07-.44.07-1.32-.52-1.41-.15-.02-.3.01-.38.16-.1.19-.1.36-.05.57.05.19.06.24.05.41,0,.22-.1.55-.22.73-.07.1-.12.17-.23.27-.09.08-.23.16-.35.21-.26.11-.57.14-.85.1-.32-.05-.62-.18-.83-.43s-.24-.58-.21-.9.07-.68.19-.99c.1-.25.33-.44.59-.53.74-.26,1.44.29,1.96.77.14.13.4.01.34-.19h0Z"/>
                    <path class="cls-10" d="M493.94,974.78c-.88-.78-1.96-1.31-2.98-1.89-1.09-.63-2.2-1.24-3.31-1.85-2.21-1.23-4.4-2.48-6.6-3.73-.34-.19-.64.33-.31.52,2.21,1.23,4.42,2.46,6.62,3.71,1.1.63,2.19,1.26,3.3,1.87,1.03.57,2.04,1.22,3.17,1.57.1.03.19-.11.11-.18h0Z"/>
                    <path class="cls-10" d="M504.63,981.68c.41.38.97.65,1.46.94s1.02.59,1.52.88c.38.22.94.38.92.91,0,.22-.04.54-.18.72-.16.21-.34.09-.54.16-.05.02-.09.05-.1.1-.04.25.22.41.45.4.3-.01.55-.22.7-.47.3-.52.41-1.25,0-1.74-.22-.25-.53-.43-.81-.6-.34-.21-.69-.41-1.04-.61s-.66-.4-1-.59-.72-.43-1.1-.56c-.26-.08-.47.28-.27.46h0Z"/>
                    <path class="cls-10" d="M481.04,967.51c-.02-.2-.11-.34-.31-.41-.14-.05-.31-.05-.46,0-.29.09-.49.33-.67.55s-.38.49-.44.79c-.02.09-.02.17-.02.25,0-.13-.01.16-.01.08,0,.04,0,.08.02.12.02.13.08.26.15.37.15.24.36.44.59.59.17.1.34.2.54.1.18-.09.22-.3.13-.48-.05-.09-.12-.14-.21-.2-.02-.01-.04-.03-.06-.05.08.06,0,0-.01-.01-.04-.03-.09-.07-.13-.1-.08-.06.06.05-.01-.01-.04-.04-.09-.08-.13-.12-.02-.02-.04-.04-.06-.06-.06-.07.04.06-.01-.01-.02-.04-.05-.08-.07-.12-.04-.08.01.07,0-.02,0-.03-.01-.05-.02-.08-.07-.23-.02-.02-.02-.02.01,0,0-.08,0-.1,0,.06.01-.05.01-.05,0-.01.05-.13.03-.08.03-.06.07-.12.1-.18.09-.14.14-.2.25-.32.05-.06.11-.12.17-.17s-.03,0,.04-.03c.02-.01.04-.02.06-.03-.02,0-.02.01,0,0,.01,0,.07-.02.03-.01.02,0,.04,0,.06,0-.03,0-.02,0,.01,0,.09.03.14.03.19.04.13.05.3-.08.28-.21h0Z"/>
                    <path class="cls-10" d="M479.89,969.78c.39.49,1.02.76,1.55,1.07.52.31,1.05.62,1.57.93,1.13.67,2.27,1.34,3.42,1.99,2.29,1.31,4.56,2.64,6.88,3.9.45.25.85-.43.41-.69-2.26-1.35-4.57-2.63-6.86-3.93-1.15-.65-2.3-1.29-3.45-1.93-.53-.29-1.07-.58-1.6-.88s-1.1-.71-1.71-.79c-.2-.03-.33.17-.2.34h0Z"/>
                    <path class="cls-10" d="M499,980.88l.34.29c.13.11.27.19.42.28.13.08.26.17.4.23.07.03.14.06.21.09.11.05.19.05.3.04.15-.01.26-.16.18-.3-.05-.09-.1-.17-.19-.22-.06-.04-.12-.07-.18-.11-.14-.08-.29-.14-.44-.2s-.3-.14-.46-.19l-.46-.12c-.11-.03-.22.12-.12.21h0Z"/>
                    <path class="cls-10" d="M503.38,983.26c.25.32.66.5,1.02.69.38.2.76.4,1.14.6.75.39,1.52.81,2.31,1.11.09.04.2,0,.27-.07s.08-.12.09-.2c0-.1-.06-.2-.14-.25-.72-.45-1.53-.81-2.3-1.17-.39-.18-.78-.37-1.17-.55-.35-.16-.73-.36-1.12-.37-.12,0-.16.14-.09.22h0Z"/>
                    <path class="cls-10" d="M480.56,970.01c-1.84,2.41-2.95,5.84-2.58,8.87.37,3.08,2.42,5.35,4.68,7.31,2.61,2.26,5.64,3.71,8.82,4.98,2.72,1.09,5.73,1.99,8.66,1.28,3.41-.82,5.7-4.13,6.73-7.32.14-.45-.56-.75-.77-.32-1.29,2.62-2.63,5.6-5.61,6.62-2.66.92-5.47.25-8.02-.72-2.88-1.09-5.81-2.35-8.22-4.3-2.13-1.72-4.48-3.83-5.21-6.58-.4-1.5-.34-3.09.02-4.59.42-1.77,1.32-3.27,2.08-4.9.19-.4-.32-.68-.58-.34h0Z"/>
                    <g>
                      <path class="cls-10" d="M482.49,985.93c-.78.52-1.69.05-2.43-.3s-1.56-.75-2.37-.84c-.69-.08-1.25.33-1.49.97-.26.71,0,1.46.26,2.12l.45-.34c-.54-.28-1.08-.56-1.62-.83l.14.19c-.11-.61-.11-1.31.23-1.85.36-.59,1.02-.68,1.65-.72.6-.03,1.25-.06,1.76-.42.44-.31.82-.88.56-1.41-.1-.2-.42-.15-.47.06-.09.39-.18.7-.56.9s-.82.21-1.23.24c-.74.04-1.51.14-2.02.73-.48.55-.63,1.32-.58,2.03.01.19.01.41.08.59s.22.23.37.31c.46.24.92.48,1.39.72.21.11.55-.08.45-.34-.23-.6-.54-1.33-.18-1.94.41-.71,1.32-.26,1.91-.05,1.25.46,2.74,1.6,4.02.61.24-.18-.07-.59-.32-.42h0Z"/>
                      <path class="cls-10" d="M492.65,991.57c-.24,1.6,1.49,2.35,2.5,3.21.46.39,1.28.96.92,1.65-.34.64-1.16.74-1.8.83-.28.04-.28.43-.08.56.42.27.83.55,1.25.82.16.11.3.24.5.21.17-.03.35-.13.5-.2.66-.31,1.28-.82,1.54-1.52.26-.72-.01-1.42-.33-2.07-.18-.37-.39-.77-.42-1.19-.03-.45.2-.7.51-.98.16-.15.05-.46-.18-.44-.57.04-.89.61-.95,1.13-.08.64.22,1.23.49,1.78s.52,1.16.21,1.75-.93.94-1.53,1.15l.23.03c-.51-.33-1.01-.67-1.52-1l-.08.56c.71-.1,1.48-.24,1.98-.81.44-.52.53-1.21.12-1.77-.48-.66-1.23-1.19-1.89-1.65-.67-.47-1.53-1.04-1.45-1.97.02-.3-.48-.37-.53-.07h0Z"/>
                    </g>
                  </g>
                  <path class="cls-10" d="M507.56,928.09c.82,1.89,2.74,3.24,4.4,4.36,2.01,1.36,4.09,2.61,6.2,3.82s4.35,2.42,6.57,3.55c1.01.51,2.01,1.05,3.05,1.49.75.32,1.68.69,2.46.3.23-.12.14-.42-.06-.5-.42-.17-.9-.2-1.34-.32-.5-.15-.97-.37-1.44-.6-1.03-.5-2.05-1.01-3.06-1.53-2.03-1.04-4.04-2.13-6.02-3.26-1.93-1.1-3.88-2.21-5.76-3.4-.88-.56-1.73-1.15-2.52-1.83s-1.48-1.5-2.21-2.26c-.14-.15-.34.03-.27.2h0Z"/>
                  <path class="cls-10" d="M507.87,928c-2.45-.85-5.14-.7-7.49.4-2.81,1.32-4.54,3.96-6.12,6.51-3.83,6.17-7.59,12.39-11.2,18.69-3.61,6.3-7.08,12.68-10.25,19.22-1.54,3.19-3.02,6.41-4.42,9.66-1.37,3.19-2.76,6.4-3.8,9.72-.94,3.03-.98,6.29.66,9.1s5.03,4.8,8.16,5.82c.37.12.57-.42.26-.62-2.54-1.61-5.46-2.74-7.19-5.35-1.61-2.42-1.75-5.36-.99-8.1.9-3.2,2.25-6.3,3.55-9.35s2.66-6.07,4.08-9.07c5.84-12.28,12.68-24.04,19.65-35.7.94-1.58,1.87-3.17,2.84-4.73.94-1.51,1.97-2.99,3.36-4.11,2.42-1.97,5.8-2.52,8.76-1.59.32.1.44-.39.13-.5h0Z"/>
                  <path class="cls-10" d="M530.15,941.64c2.09,1.97,3.26,4.88,2.98,7.76-.34,3.49-2.61,6.61-4.31,9.57-3.64,6.35-7.32,12.67-11.16,18.9-3.81,6.18-7.8,12.26-12.05,18.16-2.11,2.92-4.27,5.8-6.52,8.61-1.11,1.39-2.24,2.76-3.42,4.08-1.08,1.22-2.23,2.41-3.67,3.22-3.16,1.79-6.62,1.34-9.73-.32s-5.62-4.12-8.87-5.25c-.37-.13-.57.42-.26.62,2.75,1.76,5.36,3.82,8.21,5.41,2.65,1.48,5.62,2.33,8.63,1.55,3.3-.86,5.51-3.3,7.64-5.81,2.37-2.79,4.6-5.7,6.78-8.64,9.24-12.42,17.1-25.8,24.67-39.28,1.02-1.81,2.07-3.61,3.02-5.46.82-1.61,1.52-3.31,1.71-5.11.33-3.12-.95-6.27-3.28-8.35-.24-.22-.61.13-.37.36h0Z"/>
                </g>
              </g>
            </g>
            <g class="cls-9">
              <g>
                <path class="cls-10" d="M263.27,694.29c-1,0-2.47.39-3.17-.6-.65-.93.4-2.19,1.08-2.78.76-.65,1.86-1.1,2.86-.88.53.12.95.42,1.11.95.14.48.1.98-.07,1.45s-.52.92-.94,1.21c-.23.15-.47.27-.74.33s-.54.15-.8.14c-.38-.01-.39.49-.08.62.34.14.61.25.98.19.35-.05.69-.17,1-.35.58-.32,1.07-.84,1.38-1.43.65-1.25.52-3.1-.85-3.81-1.3-.67-2.95-.26-4.08.57s-2.31,2.32-1.82,3.77c.25.73.92,1.24,1.67,1.39.9.18,1.78-.05,2.56-.51.12-.07.07-.26-.07-.26h0Z"/>
                <path class="cls-10" d="M245.42,677.88c-.97-1.2-2.06-2.31-3.17-3.39-.87-.85-1.69-1.71-2.89-2.07s-2.64-.45-3.89-.39c-1.14.06-2.22.38-3.13,1.09-1.97,1.53-2.59,4.08-2.24,6.46.35,2.37,1.52,4.53,4.03,5.07,1.25.27,2.55.14,3.75-.29,1.37-.48,2.92-1.25,3.99-2.26.48-.46-.13-1.07-.66-.85-1,.43-1.87,1.15-2.87,1.61-.95.44-1.97.73-3.03.7-.91-.03-1.86-.3-2.56-.91-.79-.69-1.13-1.77-1.35-2.77-.43-2.02-.08-4.32,1.56-5.72.82-.69,1.82-.94,2.87-.95s2.2.02,3.22.28c1.22.32,2.07,1.37,2.98,2.17,1.01.89,2,1.78,3.08,2.57.24.18.45-.18.29-.38h0Z"/>
                <path class="cls-10" d="M244.07,679.91c-1.61-1.04-3.56-1.51-5.44-1.72-.9-.1-1.82-.14-2.73-.03-.4.05-.79.13-1.14.34-.38.23-.53.48-.67.88-.1.29.26.53.51.39.56-.33,1.32-.45,1.96-.49.8-.05,1.61-.06,2.42,0,1.69.11,3.3.58,4.93,1.02.25.07.38-.27.17-.4h0Z"/>
                <path class="cls-10" d="M256.66,672.96c-.17-1.96-.07-3.92.58-5.79.61-1.74,1.71-3.68,3.31-4.69,1.95-1.23,3.81.27,4.24,2.27.38,1.75-.07,3.64-.96,5.17-.51.86-1.16,1.63-1.93,2.27-.38.31-.79.58-1.22.81-.41.22-.75.36-.89.83-.04.12.03.27.13.33.82.49,2-.49,2.63-.97.82-.63,1.53-1.39,2.1-2.26,1.19-1.8,1.75-4.04,1.4-6.19s-2.14-4.31-4.56-3.9c-2.26.38-3.79,2.72-4.64,4.66-1.03,2.33-1.43,5.07-.7,7.54.08.27.54.23.51-.07h0Z"/>
                <path class="cls-10" d="M258.9,673.93c.26-1.35.56-2.7,1.06-3.98.26-.65.57-1.28.93-1.89.18-.3.36-.59.54-.88.17-.27.39-.53.49-.84.08-.23-.21-.45-.41-.32-.29.18-.47.47-.67.73-.22.29-.42.6-.6.92-.36.63-.66,1.28-.92,1.96-.52,1.35-.84,2.79-.76,4.24.01.19.31.26.35.05h0Z"/>
                <path class="cls-10" d="M248.57,681.89c-1.61-.62-3.45.42-4.23,1.86-.82,1.52-.6,3.49.55,4.78,1.16,1.3,3.16,1.75,4.75,1.06,1.74-.75,2.35-2.69,2.04-4.45-.18-1-.71-1.95-1.55-2.55-.74-.52-1.97-.9-2.72-.22-.16.15-.09.48.14.52.67.11,1.31.04,1.92.4.6.37.99.99,1.18,1.65.36,1.24.15,2.86-1.04,3.59-1.15.71-2.74.5-3.75-.38-1.01-.89-1.34-2.36-.88-3.62.53-1.47,2.11-2.14,3.55-2.31.2-.02.24-.27.05-.34h0Z"/>
                <path class="cls-10" d="M248.22,684.74s-.03-.03,0,0c0,0,.02.02.03.03.01.02.03.05,0,0,0,.01.01.02.02.03.02.02.02.05.04.07-.02-.04-.02-.04,0-.02,0,0,0,.01,0,.02,0,.01,0,.02.01.03,0,0,0,.02,0,.02,0,.05.01.01,0-.09-.01.03-.01.06-.02.09,0,.04.01.07.02.11.01.06,0-.02,0-.03,0,0,0,.07,0,.09,0,.02,0,.03,0,.05,0,.07,0-.05,0-.02,0,.03-.01.06-.02.08,0,.01,0,.03-.01.04-.02.05.04-.08,0-.02-.01.03-.03.05-.04.07s-.05.06.02-.02c0,.01-.02.02-.03.03s-.02.02-.03.03c0,0-.05.05,0,0s0,0,0,0c-.01,0-.02.01-.04.02-.03.01-.07.02.02,0-.01,0-.03,0-.04.01-.03,0-.06.02-.09.02h.08c-.06,0-.11,0-.17-.01h.08s-.07,0-.1,0-.12-.05-.02,0c-.03-.02-.06-.03-.09-.05-.01,0-.02-.01-.03-.02-.04-.03.07.06.01.01-.02-.02-.04-.04-.06-.06-.05-.05.04.06.01.02,0-.01-.02-.03-.03-.04,0-.01-.01-.02-.02-.03-.02-.04.03.09,0,.02-.01-.03-.02-.07-.02-.1v.08s0-.08.01-.13v.08s0-.08.02-.12c0,0,0-.03.01-.03,0,0-.03.07-.01.03,0-.02.02-.04.03-.06s.02-.04.04-.05c.02-.03-.02.03-.02.03,0,0,.01-.02.02-.02.01-.02.03-.03.05-.05.02-.02.08-.06,0,0,.03-.02.07-.04.1-.06.01,0,.04-.02,0,0-.05.02,0,0,0,0,.02,0,.04-.01.05-.02.01,0,.02,0,.03,0,.03,0-.07,0-.04,0,.02,0,.04,0,.06,0,.02,0,.04,0,.06,0,.06,0,.12-.02.18-.05.07-.03.12-.12.13-.19.01-.09-.02-.15-.07-.22-.12-.16-.41-.13-.58-.08-.16.05-.31.14-.42.27s-.2.28-.23.44c-.03.19-.01.37.07.54.12.25.4.44.67.48.32.05.65-.03.86-.3.11-.14.16-.31.17-.49,0-.08,0-.16-.02-.24,0-.03-.01-.06-.02-.09-.03-.09-.08-.15-.16-.21l.09.09c-.06-.08-.11-.16-.18-.22-.08-.07-.17-.12-.27-.15-.09-.03-.18.02-.21.1-.04.09,0,.17.07.23h0Z"/>
                <path class="cls-10" d="M248.04,687.1c0-.15-.07-.27-.2-.36-.1-.08-.23-.11-.36-.11-.28,0-.56.15-.67.41-.07.16-.09.33-.04.51.04.16.13.3.25.41.23.21.56.33.87.29.12-.01.22-.03.29-.13.04-.05.06-.12.09-.18.04-.1.08-.2.11-.3.03-.11.06-.24.06-.35,0-.06-.01-.13-.02-.19-.02-.1-.05-.18-.14-.23-.07-.05-.17-.04-.24,0-.11.07-.14.19-.17.31-.02.07-.03.15-.04.22s-.04.15-.06.22c0,.02-.01.04-.02.06v.02s-.02.02,0-.02c0,.03-.04.09-.05.11l.18-.14s-.06,0,0,0,0,0,0,0c-.02,0-.04,0-.06,0s-.04,0-.06,0c-.01,0-.06,0,0,0s.01,0,0,0c-.05,0-.09-.02-.13-.04,0,0-.03,0-.03-.01,0,0,.07.03.03.01-.02-.01-.04-.02-.06-.03-.02-.01-.04-.02-.05-.03-.02-.01-.04-.04.02.02,0,0-.01-.01-.02-.02-.02-.01-.03-.03-.05-.05-.01-.01-.06-.07-.02-.02s-.01-.02-.02-.03c0,0-.03-.05-.03-.05,0,0,.03.09.01.03,0-.01,0-.02,0-.03,0-.02-.01-.04-.01-.07v.08s0-.07.01-.11v.08s0-.04,0-.06c.01-.05,0,.03-.02.03,0,0,.01-.02.01-.03,0,0,.01-.02.02-.03.02-.03.04-.02-.02.03.02-.01.03-.03.04-.05,0,0,.02-.01.02-.02-.05.06-.06.04-.03.02.04-.02.07-.05.11-.08-.09.07-.03.02,0,0,.02-.01.04-.02.06-.03.04-.02-.07.03-.03.01.01,0,.02,0,.03-.01.02,0,.04,0,.06-.01.04,0-.07,0-.03,0h.07c-.05,0-.07,0-.04,0,0,0,.06,0,.06,0,0,0-.07-.02-.03,0,0,0,.02,0,.03,0,.03,0-.05-.02-.02-.01.01,0,.09.04.05.02-.05-.02.05.03.01,0-.03-.02,0,0,0,0,0,0,.02.02.02.03.09.11.3.02.29-.12h0Z"/>
                <path class="cls-10" d="M261.39,677.92c.5.09,1.05.24,1.46.55.44.34.76.84.9,1.38.15.6.05,1.22-.14,1.8-.21.64-.61,1.15-.99,1.7-.31.46.36.91.74.57,1.15-1.04,1.78-2.96,1.3-4.46-.4-1.27-1.83-2.71-3.27-2.18-.27.1-.35.57,0,.63h0Z"/>
                <path class="cls-10" d="M257.08,665.85c-.73-7.13-7.34-13.17-14.44-13.43-7.41-.28-14.39,4.92-15.57,12.35-.63,3.98.16,8.66,2.97,11.72.44.49,1.3-.15.92-.71-.97-1.45-1.83-2.87-2.31-4.56-.47-1.62-.65-3.29-.54-4.97.22-3.43,1.75-6.67,4.3-8.97,5.11-4.61,13.02-4.93,18.43-.68,3.04,2.38,4.86,5.6,5.72,9.32.07.3.57.24.54-.07h0Z"/>
                <path class="cls-10" d="M237.59,684.16c2.11,3.43,5.98,6.01,9.56,7.69,1.85.87,3.77,1.54,5.76,1.99.98.22,1.96.38,2.96.48s2.21.27,3.23.04c.45-.1.44-.79,0-.9-.9-.22-1.89-.17-2.81-.29-1.02-.13-2.04-.31-3.04-.54-1.92-.44-3.82-1.07-5.61-1.9s-3.42-1.81-5-2.94c-1.66-1.19-3.07-2.64-4.61-3.98-.23-.2-.62.05-.44.34h0Z"/>
                <path class="cls-10" d="M259.86,674.28c.03,1.13.72,2.34,1.07,3.4.41,1.24.79,2.48,1.11,3.75.31,1.22.58,2.45.79,3.69.22,1.27.27,2.61.56,3.86.12.53.91.4.93-.13.04-1.27-.27-2.63-.48-3.88-.22-1.28-.5-2.56-.83-3.82-.33-1.26-.7-2.51-1.13-3.74-.38-1.08-.72-2.52-1.53-3.35-.17-.18-.51-.05-.5.21h0Z"/>
                <path class="cls-10" d="M232.42,656.05c.26-2.82-1.22-5.53-3.24-7.43-2.37-2.21-5.34-3.04-8.53-3.01-3.37.03-7.03.65-9.93-1.51-1.25-.93-2.02-2.29-1.86-3.87.17-1.74,1.15-3.28,1.46-4.99.49-2.75-1.16-6.73-4.26-7.12-.35-.04-.57.5-.3.71,1.14.9,2.25,1.61,2.91,2.96.73,1.5.62,3.03.11,4.57-.49,1.49-1.21,2.98-1.12,4.59.07,1.22.59,2.33,1.41,3.23,4.62,5.07,12.28.81,17.67,4.05,2.88,1.73,4.48,4.67,5.31,7.85.06.22.36.16.38-.05h0Z"/>
              </g>
              <path class="cls-10" d="M230.72,675.8c.08-.57.1-1.15.22-1.72s.27-1.13.48-1.68c.43-1.11,1.13-2.04,1.74-3.04.07-.11-.07-.27-.19-.19-.98.71-1.61,1.88-2.03,2.99-.42,1.11-.73,2.45-.54,3.63.03.16.3.16.33,0h0Z"/>
              <path class="cls-10" d="M229.03,672.06c.25-.7.47-1.41.77-2.1.14-.33.29-.65.46-.97s.4-.64.52-.99c.06-.16-.16-.26-.27-.16-.26.25-.45.61-.62.93-.19.34-.37.69-.52,1.05-.3.7-.55,1.44-.65,2.19-.02.19.26.2.32.04h0Z"/>
              <path class="cls-10" d="M228.27,668.82c.14-.95.59-1.79,1.22-2.51.31-.36.66-.7,1.03-1.01.38-.32.83-.6,1.17-.96.14-.15-.04-.36-.22-.28-.47.22-.89.59-1.29.9s-.81.68-1.15,1.09c-.63.76-1.09,1.72-1.04,2.72,0,.16.26.21.29.04h0Z"/>
              <path class="cls-10" d="M256.79,664.95c-.41-.47-.89-.87-1.41-1.23-.25-.17-.52-.32-.79-.46-.15-.07-.29-.14-.45-.19-.14-.05-.3-.12-.46-.11-.13.01-.21.16-.11.26.1.11.25.16.38.23s.25.13.38.19c.27.13.54.29.8.44.51.31.99.68,1.44,1.08.15.13.35-.07.22-.22h0Z"/>
              <path class="cls-10" d="M255.48,661.69c-.17-.18-.35-.37-.55-.51s-.44-.26-.68-.35-.46-.15-.7-.19c-.13-.02-.26-.04-.39-.04-.15,0-.26.02-.4.08-.15.07-.08.27.04.32.21.08.43.08.64.11s.45.09.66.16.4.16.59.26c.21.11.41.21.59.35.13.1.31-.06.19-.19h0Z"/>
              <path class="cls-10" d="M252.97,658.3c-.37-.37-.83-.63-1.32-.8-.25-.08-.49-.12-.75-.14-.13,0-.26.01-.39.03s-.25.03-.38.08c-.11.05-.07.22.03.25.11.03.23.03.34.05s.22.05.33.07c.23.04.46.09.68.16.45.13.86.33,1.25.58.16.11.35-.13.21-.27h0Z"/>
              <path class="cls-10" d="M249.92,655.88c-.44-.19-.91-.33-1.39-.38-.24-.02-.48-.04-.72-.02-.11,0-.22.04-.33.07-.12.02-.24.05-.35.11-.12.07-.05.22.06.24s.22,0,.33,0,.22.01.34,0c.22,0,.43,0,.65,0,.44.04.87.12,1.29.26.16.06.28-.21.12-.28h0Z"/>
              <path class="cls-10" d="M240.91,686.94c.05-.51.11-1.02.2-1.52.05-.25.1-.5.16-.75s.16-.48.19-.72c.01-.12-.17-.19-.24-.1-.16.2-.26.47-.35.71s-.17.5-.23.76c-.13.54-.16,1.07-.1,1.62.03.24.35.24.37,0h0Z"/>
            </g>
            <g class="cls-4">
              <g class="cls-9">
                <path class="cls-10" d="M486.37,1084.91c-.54,5.68.62,11.51,3.33,16.54.76,1.41,1.62,2.8,2.7,3.99.13.15.39-.05.28-.22-.97-1.5-1.95-2.98-2.76-4.57-.82-1.62-1.5-3.31-2.01-5.06-1.02-3.46-1.43-7.08-1.16-10.68.02-.24-.35-.23-.37,0h0Z"/>
                <path class="cls-10" d="M484.74,1108.59c1.09,3,2.58,5.85,4.47,8.43,1.84,2.51,4.04,4.97,6.65,6.7.15.1.33-.13.19-.25-2.3-2.14-4.55-4.25-6.42-6.79-1.86-2.52-3.4-5.27-4.54-8.19-.09-.22-.44-.13-.36.1h0Z"/>
                <path class="cls-10" d="M485.26,1122.61c.63,2.37,1.75,4.59,3.27,6.51.77.98,1.65,1.86,2.61,2.65.92.75,1.94,1.49,3.06,1.89.17.06.24-.18.12-.27-.97-.71-1.99-1.31-2.92-2.08-.89-.75-1.72-1.58-2.46-2.48-1.53-1.85-2.69-3.99-3.37-6.29-.06-.2-.36-.11-.31.08h0Z"/>
                <path class="cls-10" d="M486.78,1135.48c1.11,1.91,2.35,3.74,3.75,5.45,1.38,1.68,2.89,3.39,4.64,4.7.17.13.36-.14.22-.29-1.48-1.58-3.05-3.05-4.44-4.71-1.41-1.69-2.7-3.47-3.85-5.34-.13-.21-.45-.02-.32.19h0Z"/>
                <path class="cls-10" d="M486.14,1101.84c.42,1.49.92,2.91,1.6,4.3.33.68.69,1.35,1.09,1.99s.8,1.36,1.35,1.88c.15.14.36-.04.27-.21-.33-.67-.82-1.28-1.21-1.92s-.74-1.26-1.08-1.92c-.69-1.34-1.32-2.76-1.79-4.19-.05-.14-.27-.09-.23.06h0Z"/>
                <path class="cls-10" d="M706.56,1092.52c-.13,1.86-.47,3.68-1.14,5.43-.68,1.75-1.7,3.4-2.89,4.85-.15.19.09.45.27.27,2.73-2.69,4.32-6.72,4.12-10.55-.01-.23-.35-.23-.36,0h0Z"/>
                <path class="cls-10" d="M707.73,1103.31c-.53,1.28-1.14,2.52-1.83,3.72s-1.44,2.31-2.15,3.46c-.1.15.13.33.25.19,1.89-2.04,3.18-4.67,4.12-7.27.09-.25-.29-.34-.39-.11h0Z"/>
                <path class="cls-10" d="M706.02,1116.44c-.8,1.41-1.74,2.74-2.8,3.96s-2.26,2.25-3.39,3.39c-.09.09.02.22.13.17,1.43-.77,2.65-1.98,3.7-3.2,1.08-1.25,1.99-2.63,2.74-4.1.13-.26-.25-.48-.39-.23h0Z"/>
                <path class="cls-10" d="M702.7,1129.44c-.8.83-1.62,1.65-2.4,2.5-.38.42-.77.83-1.15,1.26s-.73.86-1.05,1.34c-.1.15.11.29.24.18.44-.37.84-.75,1.23-1.18s.76-.85,1.14-1.27c.76-.85,1.48-1.73,2.22-2.6.12-.15-.08-.35-.21-.21h0Z"/>
                <path class="cls-10" d="M564.3,1094.06c.93-.63,1.88-1.21,2.86-1.76.49-.28.98-.54,1.48-.8.46-.25.98-.47,1.39-.81.11-.1-.01-.24-.13-.23-.52.08-1.04.37-1.5.61-.52.26-1.02.54-1.51.84-.96.57-1.87,1.23-2.75,1.91-.14.11.04.34.19.24h0Z"/>
                <path class="cls-10" d="M564.35,1092.06c.83-.3,1.61-.75,2.4-1.15.4-.2.8-.42,1.2-.63.19-.1.37-.2.56-.3s.4-.19.49-.38c.04-.08.02-.22-.1-.23-.21-.03-.38.06-.56.16s-.37.2-.56.29c-.4.21-.8.42-1.19.64-.78.43-1.61.84-2.33,1.37-.11.08-.05.3.1.24h0Z"/>
                <path class="cls-10" d="M564.57,1090.05c.72-.53,1.49-1.02,2.27-1.48.78-.45,1.62-.82,2.37-1.31.15-.1.06-.34-.12-.29-.89.21-1.72.7-2.49,1.19s-1.5,1.05-2.19,1.68c-.11.1.04.31.17.22h0Z"/>
                <path class="cls-10" d="M615.77,1094.92c.67.66,1.33,1.33,2,1.99.33.33.66.65.99.98.16.16.33.31.5.46s.38.32.6.37c.13.03.27-.09.22-.22-.06-.2-.23-.4-.37-.55-.15-.16-.32-.32-.48-.47-.35-.32-.71-.64-1.06-.96-.7-.63-1.4-1.26-2.1-1.89-.2-.18-.48.1-.29.29h0Z"/>
                <path class="cls-10" d="M617.06,1093.02c.47.71,1,1.39,1.59,2,.29.3.6.59.92.87.16.14.33.28.51.4.08.06.18.08.27.12.1.05.2.1.31.14.12.04.26-.12.18-.23-.06-.07-.12-.14-.18-.21-.07-.07-.12-.17-.18-.24-.14-.15-.32-.28-.48-.41-.32-.26-.62-.54-.91-.83-.59-.58-1.14-1.19-1.64-1.84-.17-.22-.55-.02-.38.22h0Z"/>
                <path class="cls-10" d="M618.27,1091.39c.58.44,1.16.91,1.71,1.39.27.23.53.47.8.71.28.25.56.5.9.66.13.06.27-.07.2-.2-.16-.31-.41-.57-.67-.8-.29-.26-.59-.51-.89-.75-.6-.48-1.21-.93-1.85-1.35-.22-.15-.4.19-.2.35h0Z"/>
                <path class="cls-10" d="M620.07,1089.88c.53.32,1.04.69,1.52,1.09.24.2.46.41.69.63.11.1.22.21.33.31.12.12.26.21.39.32s.35-.03.25-.19c-.09-.15-.16-.29-.27-.43-.1-.12-.21-.24-.32-.36-.22-.24-.47-.45-.72-.66-.51-.42-1.06-.78-1.64-1.1-.25-.14-.47.24-.22.38h0Z"/>
                <path class="cls-10" d="M485.13,1117.34c.11.74.45,1.44.79,2.1.34.67.74,1.31,1.19,1.91.85,1.14,1.93,2.42,3.25,3.03.17.08.34-.12.21-.27-.49-.53-1.07-.99-1.59-1.5-.51-.5-1-1.04-1.43-1.61s-.83-1.18-1.19-1.81-.62-1.32-.99-1.95c-.08-.13-.24-.04-.22.09h0Z"/>
                <path class="cls-10" d="M486.48,1132.1c.57,1.21,1.41,2.31,2.34,3.27.9.93,1.98,1.9,3.21,2.34.13.05.25-.15.14-.24-.5-.42-1.05-.76-1.57-1.16s-1-.81-1.45-1.26c-.94-.93-1.71-1.98-2.42-3.09-.1-.16-.34-.02-.25.15h0Z"/>
                <path class="cls-10" d="M613.93,1058.69c-.04-1.83-.01-3.65.27-5.47s.75-3.5,1.34-5.18c.08-.24-.28-.33-.37-.1-1.37,3.32-2.01,7.17-1.59,10.75.03.22.36.23.35,0h0Z"/>
                <path class="cls-10" d="M599.01,1058.15c-.05-2.4-.7-4.72-1.96-6.77-.11-.19-.4-.02-.29.17,1.12,2.01,1.76,4.3,1.82,6.6,0,.28.44.28.43,0h0Z"/>
                <path class="cls-10" d="M563.22,1069.32c-.59-3.92-1.97-7.67-4.18-10.96-.12-.17-.39-.02-.28.16,1.98,3.36,3.42,7.06,4.07,10.91.04.26.42.14.39-.11h0Z"/>
                <path class="cls-10" d="M544.71,1092.92c-.49-4.04-1.39-8.11-3.05-11.83-.08-.17-.36-.05-.3.13,1.3,3.85,2.45,7.72,3.03,11.75.03.19.36.14.33-.04h0Z"/>
                <g>
                  <g>
                    <path class="cls-10" d="M578.28,1118.5c.83,2.89,4.59,4.23,7.27,3.32,1.49-.51,3.24-1.9,2.67-3.69-.31-.97-1.18-1.26-2.09-1.43-1.1-.21-2.2-.44-3.31-.62-1.12-.18-2.35-.24-3.35.39-.77.49-1.46,1.4-1.1,2.35.13.34.61.37.73,0,.19-.59.51-1.12,1.06-1.43.7-.4,1.59-.34,2.36-.22.87.14,1.74.31,2.61.47.59.11,1.71.1,2,.73.57,1.23-1.2,2.2-2.14,2.47-1.07.3-2.21.23-3.25-.15-1.21-.44-2.23-1.35-2.92-2.42-.18-.27-.63-.1-.54.23h0Z"/>
                    <path class="cls-10" d="M583.77,1121.62c-.82,1.46-.65,3.92.21,5.33,1.15,1.91,3.82,2.29,5.84,2.54,2.49.31,5.3.56,7.78.08,1.62-.31,4.24-1.61,4.14-3.6-.02-.46-.58-.59-.84-.23-.52.74-.8,1.44-1.59,1.97s-1.79.78-2.76.87c-2.04.18-4.2.07-6.24-.11-1.8-.15-4.55-.37-5.6-2.1-.91-1.5-.27-3.15-.64-4.73-.03-.14-.23-.16-.3-.04h0Z"/>
                    <path class="cls-10" d="M571.04,1121.73c1.47-2.46,3.58-4.93,6.02-6.46,2.97-1.86,6.13-1.73,9.33-.56,2.92,1.07,5.89,2.49,8.58,4.04,1.34.77,2.6,1.67,3.64,2.81s1.52,2.39,2.14,3.75c.17.37.79.19.76-.21-.2-3.02-3.2-5.48-5.6-6.91-1.55-.92-3.21-1.65-4.84-2.43-1.56-.75-3.12-1.52-4.76-2.1-3.17-1.12-6.56-1.26-9.56.43-2.8,1.58-5.14,4.29-6.77,7.02-.4.67.65,1.29,1.05.61h0Z"/>
                    <path class="cls-10" d="M572.67,1124.51c-.17-.06-.34-.12-.51-.19-.06-.02.08.03-.03-.01-.05-.02-.1-.04-.14-.07-.08-.04-.16-.08-.23-.12-.16-.09-.31-.19-.46-.28-.06-.04.07.06-.02-.01-.03-.03-.06-.05-.09-.08-.07-.06-.13-.12-.19-.19-.01-.01-.1-.12-.05-.05s-.03-.04-.04-.06c-.04-.07-.08-.14-.12-.21-.07-.14.03.11-.01-.04-.01-.04-.03-.08-.04-.12-.01-.05-.02-.09-.03-.14.01.08,0-.05,0-.06,0-.05,0-.11,0-.16,0,0,.02-.19,0-.09.02-.11.04-.21.08-.31.07-.24.14-.35.27-.59.16-.28.08-.68-.22-.83s-.67-.08-.83.22c-.29.52-.52,1.1-.51,1.7.01.55.22,1.05.56,1.48.57.71,1.47,1.08,2.31,1.36.3.1.66-.11.73-.42.08-.33-.1-.62-.42-.73h0Z"/>
                    <path class="cls-10" d="M583.36,1122.34c.33.9.06,1.88-.54,2.59-.73.86-1.8,1.21-2.91,1.25-1.21.04-2.37-.25-3.53-.55-1.26-.32-2.49-.7-3.71-1.14-.73-.26-1.07.94-.32,1.17,1.46.46,2.96.88,4.47,1.14,1.4.24,2.87.46,4.27.13,2.06-.48,4.02-2.72,2.9-4.87-.18-.34-.77-.11-.63.27h0Z"/>
                    <path class="cls-10" d="M573.39,1107.12c-.47,1.03-.86,2.08-.74,3.23.09.92.52,1.8,1.28,2.34,1.78,1.28,4.16-.4,5.35-1.76.67-.76,1.49-1.84,1.49-2.89,0-.46-.56-.53-.79-.22-.31.41-.47.9-.73,1.35-.24.4-.51.78-.83,1.13-.68.75-1.58,1.45-2.57,1.72s-1.82-.29-2.16-1.24c-.39-1.1-.03-2.35.18-3.46.05-.27-.35-.49-.48-.2h0Z"/>
                    <path class="cls-10" d="M593.84,1108.76c-.63,2.07-.83,4.63.85,6.29.7.68,1.65,1.07,2.63.94,1.06-.14,1.96-.79,2.58-1.64.35-.48.62-1.05.79-1.61s.32-1.31.16-1.88c-.09-.3-.46-.31-.62-.08s-.25.54-.35.81c-.1.28-.19.57-.29.85-.18.52-.41,1.04-.78,1.47-.62.72-1.6,1.23-2.55.87-.84-.31-1.44-1.16-1.69-1.99-.38-1.27-.16-2.64-.11-3.93.01-.37-.53-.42-.63-.08h0Z"/>
                    <path class="cls-10" d="M568.68,1092.32c-2.6,1.2-5.05,3.05-7.13,5.01-2.02,1.91-3.7,4.17-4.65,6.81-.91,2.52-1.08,5.37-.09,7.89.94,2.39,2.74,4.37,4.93,5.69,2.92,1.76,6.4,2.26,9.76,2.04.9-.06.9-1.46,0-1.4-3.42.23-6.99-.29-9.86-2.28-2.71-1.88-4.4-4.87-4.28-8.19.12-3.32,1.8-6.42,4-8.83,2.25-2.47,5.13-4.17,7.52-6.47.14-.14-.04-.33-.2-.26h0Z"/>
                    <path class="cls-10" d="M599.68,1123.56c1.4.74,3.11.8,4.66.8,1.75,0,3.5-.15,5.24-.32,3.24-.32,6.5-.9,9.43-2.38,2.47-1.25,4.69-3.23,5.92-5.74,1.39-2.82,1.28-6.03.18-8.93-.64-1.7-1.58-3.26-2.67-4.72s-2.27-3-3.76-4.1c-.45-.33-.99.3-.74.74.71,1.22,1.7,2.19,2.59,3.29.95,1.17,1.83,2.41,2.53,3.75,1.38,2.64,2.02,5.77.94,8.63-2.1,5.6-8.54,7.58-13.9,8.27-1.67.22-3.36.38-5.04.46-1.78.08-3.48-.2-5.24-.3-.3-.02-.41.42-.15.56h0Z"/>
                    <path class="cls-10" d="M563.06,1084.79c1.02.67,2.18,1.12,3.24,1.72s2.13,1.36,3.04,2.25c.85.84,1.55,1.81,2.05,2.89.25.53.43,1.1.56,1.67s.11,1.21.28,1.79c.14.48.82.47.97,0,.38-1.2-.19-2.74-.68-3.83-.54-1.19-1.32-2.28-2.25-3.2-.96-.96-2.09-1.74-3.29-2.38s-2.45-1.22-3.8-1.36c-.26-.03-.31.33-.12.46h0Z"/>
                    <path class="cls-10" d="M563.38,1079.61c-.4,1.16-.44,2.48-.5,3.7-.07,1.31-.05,2.62.04,3.93.19,2.56.62,5.12,1.35,7.58.19.63,1.16.36.98-.27-.68-2.44-1.18-4.92-1.38-7.45-.1-1.21-.14-2.43-.13-3.65,0-1.25.19-2.53.08-3.78-.02-.25-.36-.31-.44-.06h0Z"/>
                    <path class="cls-10" d="M563.41,1080c.81.26,1.67.28,2.5.43.84.15,1.69.33,2.51.57,1.69.48,3.31,1.19,4.82,2.1,1.46.88,2.82,1.94,4.02,3.16.62.63,1.2,1.31,1.73,2.02.43.58.79,1.55,1.53,1.74.25.06.53-.08.59-.34.2-.8-.57-1.58-1.03-2.18-.55-.73-1.15-1.43-1.8-2.08-1.31-1.32-2.81-2.46-4.42-3.38-1.61-.92-3.35-1.63-5.15-2.09-1.61-.42-3.67-.87-5.3-.36-.21.07-.21.36,0,.42h0Z"/>
                    <path class="cls-10" d="M612.63,1094.43c.48-.49.86-1.08,1.31-1.6s.95-1.02,1.46-1.5c1-.96,2.12-1.8,3.33-2.49,1.21-.69,2.49-1.22,3.83-1.59.67-.19,1.36-.34,2.05-.44.64-.09,1.34-.09,1.91-.41.22-.13.25-.51,0-.63-.63-.3-1.33-.2-2.01-.11-.76.11-1.51.27-2.25.48-1.42.41-2.8,1.01-4.07,1.77s-2.45,1.67-3.49,2.72c-.96.97-2.03,2.27-2.45,3.58-.07.22.23.39.39.23h0Z"/>
                    <path class="cls-10" d="M580.12,1087.68c5.06-.98,10.35-.63,15.45-.12,2.4.24,4.79.58,7.12,1.19,1.18.31,2.34.67,3.47,1.12.87.35,1.98,1.23,2.93,1,.17-.04.3-.25.24-.42-.32-.92-1.54-1.22-2.37-1.56-1.18-.49-2.39-.9-3.62-1.22-2.43-.62-4.93-.96-7.43-1.16-5.21-.4-10.85-.78-15.92.74-.27.08-.16.48.12.42h0Z"/>
                    <path class="cls-10" d="M606.81,1089.64c1.74-.88,3.35-2.03,5.1-2.91s3.68-1.69,5.63-2.27c1.88-.56,3.81-.96,5.76-1.18,1-.11,2.01-.19,3.02-.21.9-.02,1.97.19,2.82-.1.35-.12.51-.68.11-.87-.82-.39-1.86-.27-2.76-.26-1.06.01-2.13.08-3.19.21-2.06.25-4.09.68-6.07,1.3-1.91.6-3.79,1.37-5.56,2.3-1.79.94-3.77,2.13-5.1,3.67-.15.17.04.42.24.32h0Z"/>
                    <path class="cls-10" d="M628.46,1082.49c-1.07-.23-2.05,1.95-2.46,2.7-.92,1.65-1.75,3.36-2.61,5.04-.85,1.68-1.7,3.36-2.53,5.05-.41.82-.81,1.64-1.2,2.46-.37.78-.88,1.57-.97,2.43-.04.36.45.5.67.28.58-.58.87-1.44,1.24-2.16.41-.82.81-1.64,1.21-2.46.81-1.64,1.62-3.28,2.44-4.91.81-1.61,1.63-3.21,2.44-4.81.36-.71.74-1.42,1.2-2.09.31-.44.82-.86.68-1.43-.01-.05-.06-.09-.11-.11h0Z"/>
                    <path class="cls-10" d="M584.51,1086.9c2.89-4.55,8.05-5.99,13.19-5.72,5.45.28,11.15,1.36,16.04,3.82.76.38,1.4-.69.67-1.15-2.48-1.56-5.49-2.28-8.34-2.8-3.05-.56-6.2-1.05-9.31-1.06-4.84-.02-10.83,1.71-12.59,6.77-.07.21.23.32.34.14h0Z"/>
                    <path class="cls-10" d="M623.31,1091.82c.24.59.61,1.11.87,1.69.3.67.49,1.41.64,2.13.31,1.42.52,2.87.67,4.32.14,1.42.21,2.88.04,4.3-.09.75-.25,1.5-.49,2.21-.22.64-.6,1.22-.68,1.89-.04.34.44.61.71.41,1.11-.83,1.45-2.78,1.64-4.07.23-1.62.18-3.25,0-4.88s-.4-3.11-.75-4.63c-.3-1.31-.84-3.09-2.12-3.76-.24-.13-.64.09-.52.4h0Z"/>
                    <path class="cls-10" d="M596.9,1081.59c-.81-.03-1.73.03-2.29.69-.52.62-.56,1.52.1,2.06,1.3,1.04,3.86.59,4.23-1.2.1-.47-.13-.98-.48-1.28-.19-.16-.43-.31-.69-.33s-.47.13-.65.29c-.21.19-.04.53.22.54.07,0,.14.06.26.11.1.04.16.05.22.11.1.09.12.12.17.23-.02-.05,0,.02,0,.03,0,.03.02.07.02.1,0-.06,0,.1,0,.14,0,.46-.58.83-.99.96-.57.18-1.21.15-1.75-.13-.22-.12-.42-.27-.45-.54-.03-.24.07-.49.22-.68.41-.54,1.24-.61,1.86-.66.28-.02.28-.43,0-.44h0Z"/>
                    <path class="cls-10" d="M606.22,1083.75s0,0,0,0c-.02-.03,0-.04-.03-.08s-.07-.08-.12-.11c-.07-.05-.14-.11-.22-.16-.15-.09-.34-.15-.51-.21-.34-.1-.74-.08-1.07.06s-.58.41-.71.75c-.1.28-.09.6-.02.88.16.63.64,1.13,1.26,1.31.69.2,1.48.02,1.91-.58s.32-1.81-.56-1.91c-.12-.01-.26.08-.31.18-.07.12-.06.25,0,.37.02.04.05.09.07.13s-.02-.05-.02-.05c.01.02.02.05.03.07.02.04.04.07.06.11.01.02.02.05.03.06,0,0-.03-.09-.02-.05,0,.02.01.03.02.04.02.05.03.1.04.15,0,.02,0,.05.01.07,0,0,0-.11,0-.06,0,.02,0,.03,0,.05,0,.05,0,.11,0,.16,0,.08.02-.1,0-.02,0,.03-.01.06-.02.08,0,.02-.01.05-.02.07-.03.09.04-.06,0,0-.02.05-.06.09-.08.14-.02.04.03-.04.03-.04,0,0-.02.02-.02.03-.02.02-.04.05-.07.07-.02.02-.05.04-.06.06,0,0,.08-.05.02-.02-.01,0-.02.02-.04.02-.02.02-.05.03-.07.04-.01,0-.03.01-.04.02-.05.03,0,0,.02,0-.06,0-.12.04-.18.06-.03,0-.06.01-.08.02-.04.01.04,0,.04,0-.02,0-.04,0-.06,0-.06,0-.13,0-.19,0-.02,0-.11-.02-.05,0s-.04,0-.06-.01c-.06-.01-.12-.03-.18-.05-.02,0-.1-.04-.05-.02s-.04-.02-.06-.03c-.05-.03-.09-.06-.14-.09-.04-.02.03.03.03.03,0,0-.02-.02-.03-.02-.02-.02-.04-.04-.06-.06-.04-.04-.07-.08-.11-.12-.03-.03.03.03.03.03,0,0-.02-.02-.02-.03-.02-.02-.03-.05-.05-.07-.03-.05-.06-.09-.08-.14,0-.01-.04-.09-.02-.03s0-.03-.01-.04c-.02-.05-.03-.1-.04-.15,0-.02,0-.05-.01-.07-.01-.04,0,.05,0,.05,0-.02,0-.03,0-.05,0-.05,0-.1,0-.15,0-.02.01-.1,0-.03s0-.02,0-.04c0-.03.01-.05.02-.08,0-.02.03-.09,0-.02s0,0,.01-.02c.01-.02.03-.05.04-.07.04-.06-.06.07,0,0,.02-.02.03-.04.05-.05.02-.02.04-.03.06-.05.03-.03-.02.02-.03.02,0,0,.04-.03.05-.03.02-.02.08-.03.1-.05,0,0-.08.03-.03.01.02,0,.04-.01.05-.02.03,0,.06-.02.1-.02.01,0,.03,0,.04,0,.05-.01-.09,0,0,0,.15,0,.29,0,.43.02.03,0,.08,0,.11.01,0,0-.07-.01-.02,0,.02,0,.04,0,.06.01.1.02.2.04.3.05.07,0,.14.01.21.02.05,0,.1.02.16,0,.02,0,.05-.02.07-.03.02-.01-.07,0,0,0,.16,0,.22-.19.12-.3h0Z"/>
                    <path class="cls-10" d="M623.2,1097.29c-.26.08-.45.28-.57.52s-.12.55-.13.82c-.02.53.03,1.13.37,1.55.36.45,1,.55,1.49.24.52-.33.78-.94.68-1.54-.06-.33-.22-.64-.38-.93-.17-.31-.42-.71-.79-.8-.3-.07-.5.23-.38.49.11.24.38.38.57.55.16.14.3.31.38.51.15.39.06.81-.24,1.09-.13.12-.3.19-.45.19-.14,0-.26-.08-.36-.2-.04-.04.02.03,0-.01-.01-.02-.02-.04-.04-.06-.02-.03-.04-.07-.06-.1-.05-.09-.06-.13-.09-.25-.06-.2-.07-.35-.08-.56s-.02-.44.01-.65.04-.43.23-.57c.14-.11-.01-.33-.16-.28h0Z"/>
                    <path class="cls-10" d="M590.71,1081.57c.95-1.99,3.29-3.18,5.14-4.18,2.06-1.12,4.22-2.05,6.46-2.75,2.18-.68,4.42-1.16,6.69-1.41,1.13-.12,2.26-.2,3.39-.23,1.06-.03,2.26.15,3.29-.12.19-.05.27-.37.06-.46-1-.43-2.28-.35-3.35-.34-1.25,0-2.49.1-3.73.25-2.46.31-4.88.87-7.23,1.67-2.28.78-4.5,1.79-6.57,3.03-1.73,1.04-4.05,2.25-4.49,4.39-.04.2.25.35.34.14h0Z"/>
                    <path class="cls-10" d="M601.14,1128.38c3.72,1.39,8.02,1.65,11.95,1.45,3.98-.21,7.93-1.01,11.66-2.42,6.67-2.53,13.49-7.15,15.62-14.33,1.13-3.79.9-8.15-1.45-11.43-.42-.58-1.35-.07-.97.57,1.78,3,2.21,6.55,1.37,9.92-.83,3.34-2.85,6.2-5.38,8.48-5.37,4.84-12.87,7.41-19.99,7.98-4.3.34-8.39-.25-12.62-.92-.47-.07-.65.54-.2.71h0Z"/>
                    <path class="cls-10" d="M582.2,1087.24c.67-1.27.71-3.08.6-4.49-.13-1.6-.53-3.15-1.2-4.61-.66-1.45-1.58-2.8-2.73-3.91-1.08-1.03-2.5-2.07-4.06-1.76-.26.05-.32.47-.08.58,1.33.61,2.56,1.13,3.62,2.18,1.02,1.01,1.83,2.22,2.43,3.51s.99,2.7,1.15,4.12c.08.7.11,1.4.09,2.1s-.17,1.46-.16,2.18c0,.17.25.26.34.09h0Z"/>
                    <path class="cls-10" d="M640.33,1114.13c4.65-2.77,8.24-7.75,10.31-12.67,2.26-5.35,2.75-11.26,1.51-16.92s-4.77-10.71-9.21-14.53c-4.61-3.96-10.01-7.35-15.87-9.09-3.59-1.06-7.31-1.72-10.99-2.38-1.84-.33-3.68-.62-5.54-.8-1.89-.18-3.85-.35-5.71.11-.58.14-.39.91.13.97,1.53.18,3.08.12,4.61.24,1.73.13,3.46.39,5.17.69,3.09.55,6.19,1.16,9.25,1.9,3.06.74,6.05,1.7,8.83,3.2,2.5,1.35,4.92,2.93,7.19,4.64,4.41,3.34,8.2,7.56,10.06,12.85,1.89,5.38,1.97,11.21.21,16.64-.93,2.88-2.36,5.58-4.12,8.04-1.79,2.49-4,4.52-6.21,6.62-.25.24.07.66.37.48h0Z"/>
                    <path class="cls-10" d="M556.28,1108.14c-4.92-3.27-10.73-7.92-11.33-14.25-.6-6.31,3.16-11.85,7.69-15.84,4.67-4.11,10.2-7.4,15.77-10.14,5.61-2.76,11.52-4.91,17.6-6.41,3.48-.86,7.02-1.51,10.58-1.93,1.73-.2,3.46-.36,5.19-.47,1.73-.11,3.47-.07,5.17-.34.49-.08.49-.91,0-.99-3.17-.51-6.67-.04-9.85.31-3.29.37-6.56.91-9.78,1.65-6.5,1.47-12.84,3.69-18.84,6.58-5.91,2.84-11.75,6.3-16.71,10.63-4.67,4.08-8.5,9.69-8.28,16.14.24,7.02,6.3,13.19,12.53,15.68.37.15.56-.42.26-.62h0Z"/>
                    <path class="cls-10" d="M544.98,1098.14c-.17.36-.23.76-.31,1.15s-.16.81-.21,1.22c-.1.76-.15,1.53-.06,2.3.08.65.23,1.27.51,1.86.24.53.64,1.29,1.28,1.38.21.03.37-.12.33-.33-.09-.54-.55-.99-.77-1.48s-.38-1.1-.44-1.67c-.08-.69-.05-1.4.03-2.09.04-.35.1-.7.16-1.04.06-.36.18-.74.17-1.12-.01-.34-.52-.54-.69-.19h0Z"/>
                  </g>
                  <path class="cls-10" d="M600.4,1127.43c.39.37.88.62,1.3.97s.81.75,1.15,1.18c.73.92,1.29,2,1.66,3.11.44,1.29.66,2.65.77,4,.06.68.08,1.36.12,2.04.03.59-.02,1.2.37,1.68.15.18.4.09.52-.07.39-.52.26-1.35.24-1.97-.02-.76-.08-1.52-.16-2.28-.15-1.42-.41-2.84-.93-4.17-.43-1.11-1-2.13-1.77-3.04-.7-.82-1.8-1.91-2.92-2.07-.33-.05-.66.34-.36.62h0Z"/>
                  <path class="cls-10" d="M604.06,1132.17c1.64-.73,3.46-.75,5.21-.53,1.76.21,3.58.52,5.27,1.06,1.66.53,2.99,1.52,3.95,2.98.87,1.32,1.36,2.86,2.31,4.12.18.23.66.2.63-.17-.32-3.54-2.93-6.94-6.27-8.08-1.86-.63-3.93-.9-5.89-1.04-1.93-.14-3.86.07-5.49,1.19-.3.2-.04.62.28.48h0Z"/>
                  <path class="cls-10" d="M617.66,1133.82c1.42-1.34,2.77-2.62,4.48-3.61,1.65-.96,3.41-1.7,5.2-2.34,3.61-1.29,7.35-2.17,10.91-3.61,6.97-2.81,13.04-7.65,17.53-13.65,1.29-1.72,2.44-3.55,3.43-5.46.95-1.83,2.07-3.93,2.38-5.99.08-.52-.62-.93-.92-.39-.89,1.66-1.43,3.51-2.27,5.21-.85,1.7-1.81,3.35-2.88,4.92-2.17,3.18-4.81,6.05-7.78,8.5-3.02,2.48-6.42,4.53-10.03,6.01s-7.19,2.36-10.73,3.69c-3.48,1.31-7.59,3.19-9.57,6.52-.1.17.13.34.27.21h0Z"/>
                  <path class="cls-10" d="M653.4,1113.32c-.62-1.68-1.15-3.28-1.16-5.09-.01-1.68.3-3.35.85-4.94,1.17-3.33,3.52-6.11,6.1-8.46,2.62-2.38,5.53-4.52,8.53-6.38,1.46-.9,2.96-1.73,4.52-2.43,1.72-.77,3.55-1.2,5.29-1.9.51-.2.51-1.09-.14-1.05-2.85.17-5.79,1.68-8.26,3.04-2.65,1.46-5.13,3.21-7.52,5.07-4.49,3.48-8.9,7.76-10.18,13.52-.63,2.86-.55,6.48,1.27,8.91.23.31.85.15.69-.29h0Z"/>
                  <path class="cls-10" d="M649.85,1078.2c-.47-3.08.89-5.68,2.8-7.99.95-1.15,1.98-2.25,2.98-3.36s2.15-2.24,2.83-3.59c.12-.23-.13-.54-.38-.38-1.44.92-2.53,2.35-3.66,3.61-1.08,1.2-2.19,2.38-3.17,3.66-1.73,2.26-3.25,5.4-2.22,8.28.18.52.89.31.81-.22h0Z"/>
                  <path class="cls-10" d="M638.31,1066.7c.54-1.52.8-3.08,1.51-4.56s1.56-2.83,2.56-4.09,2.13-2.4,3.32-3.49c1.25-1.15,2.61-2.17,3.79-3.39.24-.25-.06-.63-.36-.47-3.01,1.57-5.7,4.22-7.76,6.89-1.01,1.32-1.89,2.73-2.55,4.25-.62,1.43-1.3,3.17-1.18,4.75.03.39.54.46.68.09h0Z"/>
                  <path class="cls-10" d="M538.6,1101.49c2.33-11.25,2.9-24.41-4.21-34.17-.82-1.12-1.72-2.18-2.72-3.15-.84-.81-2.11-2.21-3.37-2.17-.22,0-.43.23-.35.46.25.69.8,1.04,1.34,1.49.63.52,1.23,1.07,1.81,1.65,1.11,1.12,2.09,2.37,2.94,3.69,1.74,2.69,2.98,5.7,3.78,8.79,1.97,7.63,1.02,15.61.42,23.35-.02.2.32.25.36.05h0Z"/>
                  <path class="cls-10" d="M538.96,1101.82c-.75-5.22-4.66-9.77-8.86-12.7-2.45-1.71-5.24-2.93-8.1-3.77-1.46-.43-2.96-.77-4.47-.98-1.35-.19-3.19-.61-4.5-.13-.29.11-.43.57-.1.73,1.17.57,2.78.51,4.05.72,1.39.23,2.77.5,4.14.87,2.79.76,5.48,1.9,7.93,3.45,4.51,2.87,7.47,7.02,9.38,11.95.13.34.58.2.53-.15h0Z"/>
                  <path class="cls-10" d="M511.59,1096.6c6.63-.72,13.17-.47,19.52,1.74,5.9,2.05,11.06,5.66,16.56,8.53,1.44.75,2.9,1.45,4.4,2.07,1.44.59,3.36,1.59,4.94,1.41.53-.06.74-.69.27-1-1.18-.81-2.88-1.02-4.21-1.55-1.5-.58-2.95-1.27-4.38-2.01-2.75-1.41-5.4-3.01-8.1-4.51-5.66-3.15-11.57-5.46-18.07-6.06-3.64-.34-7.46-.17-11.01.73-.35.09-.29.68.09.64h0Z"/>
                  <path class="cls-10" d="M614.82,1030.49c7.43.14,14.85.97,22.06,2.8,6.82,1.73,13.42,4.25,19.8,7.21,6.28,2.92,12.35,6.25,18.33,9.73,5.41,3.14,10.54,6.86,14.83,11.44,2.11,2.26,4.01,4.73,5.44,7.48,1.26,2.41,2.56,4.75,3.49,7.32.99,2.73,1.82,5.65,1.91,8.57.1,3.06-.3,6.18-.95,9.16-2.63,12.2-10.06,23.03-19.28,31.26-5.24,4.67-11.22,8.35-17.41,11.62s-12.16,6.34-18.52,8.88-12.83,4.44-19.56,5.2c-6.38.72-12.95.43-19.27-.73-6.06-1.1-12.01-3.1-17.25-6.4-2.64-1.66-5.02-3.66-7.16-5.93-2.38-2.53-4.5-5.3-7.09-7.62-10-8.98-24.13-9.89-36.88-10.61s-27.43-1.84-36.73-11.84c-4.39-4.72-6.67-11.14-7.69-17.42-.9-5.52-.71-11.56,1.63-16.72,1.08-2.39,2.64-4.63,4.63-6.36.77-.67-.35-1.78-1.12-1.12-9.15,7.95-8.51,22.1-4.69,32.56,2.23,6.1,6.04,11.19,11.49,14.77,5.3,3.48,11.51,5.4,17.73,6.4,14.18,2.29,29.42.25,42.78,6.48,3.02,1.41,5.84,3.22,8.26,5.5,2.62,2.47,4.79,5.36,7.31,7.92,4.38,4.44,9.85,7.6,15.71,9.66,12.48,4.4,26.55,4.44,39.22.88,6.67-1.87,13.06-4.63,19.27-7.68,6.45-3.17,12.93-6.46,18.88-10.5,10.69-7.25,19.68-17.44,24.6-29.46,2.32-5.68,3.93-12.15,3.57-18.33-.17-2.92-.96-5.81-1.96-8.55s-2.3-5.04-3.59-7.53c-2.92-5.63-7.66-10.21-12.64-14.03-5.34-4.1-11.32-7.33-17.25-10.49-12.69-6.76-26.09-12.22-40.45-13.98-3.81-.47-7.63-.71-11.47-.76-.77-.01-.77,1.19,0,1.2h0Z"/>
                  <path class="cls-10" d="M559.03,1040.75c14.15-4.41,28.34-8.52,43.17-9.81,4.2-.37,8.41-.5,12.62-.42.82.02.82-1.27,0-1.28-14.94-.12-29.62,2.62-43.92,6.8-4.06,1.19-8.1,2.47-12.14,3.74-.61.19-.35,1.16.27.97h0Z"/>
                  <path class="cls-10" d="M498.24,1067.12c13.98-10.34,30.48-16.52,46.89-21.85,4.64-1.5,9.29-2.94,13.95-4.39.78-.24.44-1.47-.34-1.22-16.56,5.25-33.32,10.41-48.55,18.93-4.26,2.38-8.37,5.03-12.26,7.99-.32.24-.01.78.32.54h0Z"/>
                  <path class="cls-10" d="M494.71,1071.36c-7.25,5.23-8.62,14.95-9.47,23.21-1.09,10.55-1.96,21.31-.74,31.88.33,2.9.82,5.77,1.52,8.6.37,1.49.8,2.97,1.29,4.42.23.67.46,1.35.72,2.01.29.75.71,1.38,1.1,2.07.34.61,1.34.2,1.13-.48-.38-1.26-.76-2.48-1.19-3.72s-.8-2.47-1.14-3.73c-.64-2.4-1.13-4.83-1.49-7.29-.75-5.13-.91-10.33-.8-15.51.1-5.19.5-10.36.95-15.53.38-4.38.72-8.78,1.75-13.07,1.12-4.68,3.16-9.06,6.85-12.25.33-.29-.11-.88-.48-.62h0Z"/>
                  <path class="cls-10" d="M697.62,1073.74c2.19,3.62,4.26,7.28,5.69,11.29,1.43,4,2.31,8.18,2.76,12.4.97,9.08-.24,18.21-2.41,27.04-.63,2.58-1.35,5.14-2.11,7.68-.8,2.65-1.85,5.27-2.5,7.96-.2.84,1.08,1.48,1.47.62.99-2.25,1.65-4.68,2.38-7.03.73-2.36,1.42-4.73,2.04-7.11,1.24-4.77,2.22-9.62,2.76-14.52.98-8.84.45-17.92-2.49-26.36-1.56-4.48-3.73-8.95-7.01-12.41-.29-.3-.8.09-.58.45h0Z"/>
                  <path class="cls-10" d="M488.93,1142.56c.87,5.96,6.68,9.53,11.56,12.12,6.73,3.58,13.58,7.12,20.74,9.77,7.72,2.85,15.84,4.59,23.91,6.12,8.21,1.56,16.49,2.74,24.81,3.51,16.54,1.53,33.25,1.33,49.72-.92,14.63-2,29.2-5.06,43.09-10.13,6.77-2.48,13.38-5.43,19.7-8.91,3.26-1.8,6.44-3.73,9.53-5.8,2.47-1.66,4.81-3.36,6.86-5.54.77-.82,1.59-1.71,2.06-2.75.46-1.01-1.03-1.89-1.49-.87-.49,1.07-1.38,1.96-2.19,2.79-.89.91-1.83,1.79-2.84,2.57-2.76,2.12-5.78,3.98-8.77,5.77-6.13,3.68-12.56,6.84-19.19,9.49-13.27,5.31-27.24,8.63-41.34,10.86-15.89,2.51-31.96,3.26-48.03,2.27-8.19-.5-16.35-1.41-24.45-2.7-7.96-1.27-15.95-2.78-23.72-4.94-7.72-2.14-14.93-5.38-22.06-8.99-2.85-1.44-5.73-2.83-8.48-4.45-2.54-1.49-5.07-3.26-6.84-5.65-.85-1.14-1.51-2.45-1.91-3.81-.12-.42-.7-.24-.64.18h0Z"/>
                </g>
              </g>
            </g>
          </g>
          <g class="cls-13">
            <g class="cls-7">
              <rect class="cls-10" x="51.97" y="31.21" width="725.25" height="725.25" transform="translate(-33.81 38.98) rotate(-5.17)"/>
            </g>
          </g>
          <rect class="cls-2" x="152.92" y="187.68" width="487.73" height="1000"/>
        </g>
      </g>
    </g>
  </g>
</svg>